<?xml version="1.0" encoding="utf-8"?>
<!-- Generator: Adobe Illustrator 22.0.1, SVG Export Plug-In . SVG Version: 6.00 Build 0)  -->
<svg version="1.1" id="Layer_1_copy_2" xmlns="http://www.w3.org/2000/svg" xmlns:xlink="http://www.w3.org/1999/xlink" x="0px"
	 y="0px" viewBox="0 0 48 48" style="enable-background:new 0 0 48 48;" xml:space="preserve">
<style type="text/css">
	.st0{fill:none;stroke:#000000;stroke-miterlimit:10;}
	.st1{fill:none;stroke:#000000;stroke-width:2;stroke-miterlimit:10;}
</style>
<path d="M22.7,47.5c-0.5-0.1-1.1-0.1-1.6-0.2c-0.2,0-0.4,0-0.6-0.1c0.5-0.2,0.9-0.4,1.4-0.4c0.1,0,0.3,0,0.4-0.1
	c0.3-0.2,0.7-0.2,1-0.2c0.1,0,0.2,0,0.3,0c0.2,0,0.3,0,0.5,0c0.1,0,0.3,0.1,0.4,0c0.7-0.3,1.4-0.2,2-0.2c0.9,0,1.8-0.1,2.7-0.4
	c0.1-0.1,0.3,0,0.4,0c0.2,0,0.4,0,0.5-0.1c0.4-0.3,0.8-0.4,1.2-0.5c0.2-0.1,0.5-0.2,0.7-0.3c0.3-0.2,0.6-0.3,0.9-0.2
	c0.2,0,0.4,0,0.6,0c0.1,0,0.3-0.1,0.4-0.1c0,0.1,0,0.2,0,0.3c0.2-0.2,0.4-0.2,0.7-0.1c-0.1,0-0.1,0.1-0.2,0.1
	c-2.9,1.4-5.9,2.2-9,2.4c-0.1,0-0.2,0-0.3,0C24.1,47.5,23.4,47.5,22.7,47.5z"/>
<path d="M22.8,25.3c0.2,0.1,0.4,0.2,0.6,0.3c0.2,0,0.4,0,0.5-0.1c0.4-0.2,0.8-0.3,1.2-0.3c0.3,0,0.6-0.1,0.9-0.2
	c0.1,0.2,0.2,0.5-0.1,0.7c0.3,0.2,0.6,0.5,1,0.5c0.1,0,0.3,0.2,0.4,0.2c0.1,0,0.1,0.1,0.2,0.1c0.4,0.3,0.5,0.2,0.6-0.3
	c0.1-0.3,0.3-0.3,0.5-0.2c0.2,0.1,0.4,0.2,0.6,0.2c0.3,0.1,0.6,0.1,0.9,0c0.1-0.1,0.2,0,0.3,0c0.3,0,0.4-0.1,0.5-0.3
	c0.1-0.2,0.1-0.5,0.1-0.7c0-0.1,0-0.2-0.1-0.3c-0.1-0.1-0.2-0.2-0.3-0.4c-0.1,0-0.2,0.1-0.3,0.2c-0.1,0.1-0.2,0.1-0.4,0
	c0,0-0.2-0.1-0.2,0c-0.2,0.1-0.6,0.1-0.7-0.2c-0.1-0.2-0.2-0.5-0.3-0.7c-0.1-0.2-0.3-0.2-0.5,0c-0.1,0.1-0.1,0.1-0.2,0.2
	c0.1,0.1,0.1,0.2,0.2,0.3c0.1,0.2,0.1,0.1,0,0.3c0,0,0,0.1-0.1,0.1c0,0.1-0.1,0.1-0.1,0.2c-0.1-0.1-0.2-0.1-0.2-0.2
	c-0.1-0.3-0.3-0.6-0.4-1c-0.1-0.3-0.4-0.4-0.6-0.6c-0.1-0.1-0.2-0.2-0.3-0.3c-0.1-0.1-0.1-0.1-0.2-0.1c0,0,0,0-0.1,0.1
	c0-0.1,0-0.1-0.1-0.2c-0.3,0.1-0.3,0.3-0.1,0.5c0.3,0.4,0.6,0.6,1,0.8c0,0,0,0,0.1,0.1c-0.3-0.1-0.3,0-0.2,0.2
	c0,0.1-0.1,0.2-0.2,0.3c0-0.4-0.4-0.6-0.6-0.8c-0.2-0.1-0.4-0.3-0.5-0.6c-0.2-0.2-0.3-0.3-0.5-0.1c-0.2,0.1-0.3,0.3-0.6,0.1
	c-0.2-0.1-0.3,0-0.3,0.2c0,0.1-0.1,0.3-0.2,0.3c-0.3,0.2-0.5,0.3-0.4,0.7c-0.2,0.2-0.4,0.4-0.6,0.5c-0.1,0.1-0.4,0.1-0.6,0.1
	c-0.1-0.1-0.3-0.2-0.4-0.3c0,0,0,0,0,0.1c0,0,0-0.1,0-0.1c0-0.4,0-0.8,0.1-1.1c0-0.2,0.2-0.3,0.4-0.3c0.2,0,0.4,0.1,0.5,0.1
	c0.2,0,0.4,0.1,0.5-0.1c0.2-0.2,0.2-0.4,0.1-0.6c-0.2-0.3-0.4-0.5-0.6-0.8c0.1,0,0.2-0.1,0.3-0.1c0.3-0.1,0.6-0.1,0.8-0.4
	c0.3-0.4,0.7-0.7,1-1c0.2-0.2,0.2-0.3,0.1-0.5c-0.2-0.3-0.1-0.6,0-0.9c0.1,0.1,0.2,0.2,0.2,0.3c0,0-0.1,0.1-0.1,0.1
	c0,0.1,0.1,0.2,0.1,0.2c-0.1,0-0.1,0-0.2,0.1c0.1,0.1,0.2,0.2,0.2,0.3C26,20.1,26,20,26.1,20c0.3,0.2,0.5,0.3,0.9,0.2
	c0.1,0,0.2-0.1,0.4-0.1c0.4,0,0.5-0.1,0.5-0.5c0-0.1,0-0.2,0-0.3c0.1-0.1,0.2-0.2,0.3-0.2c0.1,0,0.1-0.1,0.1-0.2
	c-0.1-0.2-0.1-0.4-0.2-0.7c0.2-0.1,0.3-0.2,0.5,0c0.1,0.1,0.3,0.1,0.4,0.1c0.1,0,0.2-0.2,0.2-0.2c0-0.1-0.1-0.3-0.3-0.3
	c-0.3-0.1-0.4,0-0.6,0.1c-0.4,0.2-0.6,0.1-0.6-0.3c0-0.3,0.1-0.6,0.3-0.8c0.1-0.1,0.1-0.1,0.2-0.2c0-0.1,0.1-0.3,0-0.4
	c-0.1-0.1-0.2-0.4-0.5-0.3c-0.2,0-0.3,0.2-0.3,0.4c0.1,0.2,0,0.3-0.2,0.5c-0.2,0.2-0.4,0.5-0.4,0.8c0,0.1,0.1,0.3,0.1,0.3
	c0.2,0.2,0.2,0.4,0.1,0.5c-0.2,0.2-0.2,0.5-0.2,0.8c0,0.1,0,0.3-0.2,0.3c-0.1,0-0.1,0.1-0.2,0.2c-0.2,0.1-0.2-0.1-0.2-0.2
	c-0.1-0.4-0.2-0.7-0.4-1.2c-0.2,0.2-0.3,0.3-0.4,0.4c-0.1,0.1-0.2,0.1-0.2,0.1c-0.1,0-0.1-0.1-0.2-0.2c0-0.1,0-0.3-0.1-0.4
	c0-0.3,0-0.6,0.3-0.8c0.8-0.5,1-1.4,1.2-2.2c0-0.2,0.3-0.5,0.5-0.7c0.3-0.3,0.7-0.6,1.2-0.6c0.1,0,0.2,0,0.3,0.1
	c0,0-0.1,0.1-0.2,0.1c0.4,0.1,0.7,0.3,1,0.4c0.3,0.1,0.5,0.2,0.8,0.3c0.1,0.1,0.2,0.3,0.2,0.4c0,0.2-0.2,0.3-0.4,0.3
	c-0.3-0.1-0.6-0.1-0.9-0.2c0,0,0,0,0,0c0.3,0.2,0.4,0.4,0.5,0.8c0,0.2,0.3,0.3,0.4,0.4c0,0,0.1,0,0.1,0c0.2,0,0.5-0.5,0.5-0.7
	c0-0.1-0.1-0.1-0.2-0.2c0.1-0.1,0.2-0.2,0.2-0.3c0.1,0.1,0.3,0.1,0.3,0.1c0.2-0.1,0.2-0.2,0-0.6c0.1,0,0.1,0.1,0.2,0.1
	c0.3,0.2,0.3,0.2,0.5-0.1c0.1-0.4,0.4-0.6,0.8-0.6c0.4,0,0.5-0.2,0.5-0.6c0-0.1,0.1-0.2,0.2-0.2c0.2,0.1,0.5,0.2,0.7,0.2
	c0.1,0,0.2,0,0.3,0c0-0.1,0-0.3-0.1-0.3c-0.5-0.3-0.5-0.9-0.6-1.4c0-0.2,0-0.4,0.3-0.4c0.2,0.4,0.4,0.8,0.6,1.2
	c0.1,0.2,0.2,0.3,0.3,0.5c0.1,0.3,0.2,0.6,0,0.8c0.1,0.1,0.2,0.2,0.3,0.3c0.1,0.1,0.2,0,0.3-0.1c0.1-0.2,0.1-0.5-0.1-0.7
	c-0.1-0.2-0.4-0.3-0.3-0.6c-0.3,0-0.3-0.2-0.4-0.4c-0.1-0.1-0.1-0.2-0.2-0.4c-0.1-0.1-0.1-0.2-0.1-0.3c0,0,0.1,0,0.1,0
	c0.1,0.1,0.1,0.2,0.2,0.2c0.1,0,0.2,0,0.4,0c-0.1-0.1-0.1-0.1-0.2-0.2c0.2-0.1,0.4-0.2,0.6-0.3c-0.1-0.1-0.1-0.1-0.2-0.2
	c-0.2-0.1-0.3-0.3,0-0.4c0.2-0.2,0.2-0.3,0.2-0.6c-0.1-0.3,0.1-0.8,0.4-1c0.2-0.1,0.3-0.3,0.2-0.5c0-0.1-0.1-0.1,0-0.2
	c0-0.1,0-0.2,0.1-0.3c0.1,0,0.2,0,0.3,0c0.2,0,0.3,0.1,0.5,0.1c0.4,0,0.5,0,0.6,0.4c0,0.2,0,0.5,0,0.7c0,0.1-0.1,0.3,0.2,0.2
	c0,0,0.1,0.1,0.1,0.1c0-0.1,0.1-0.1,0.1-0.2c0.1-0.3,0.4-0.4,0.7-0.4c0.2,0,0.3,0,0.3-0.2c0-0.2,0.1-0.3,0.3-0.3
	c0.2,0,0.3,0.1,0.3,0.2c0.1,0.2,0.2,0.3,0.4,0.5c0.1,0.1,0.2,0.1,0.3-0.1c0.1-0.3,0.3-0.6,0-1c-0.1-0.2,0-0.4,0.2-0.4
	c0.4,0.1,0.8-0.1,1.2,0c0.3,0,0.3-0.1,0.4-0.3c0.4,0.5,0.8,1,1.2,1.4c0.2,0.3,0.4,0.6,0.6,0.9c0.1,0.1,0.1,0.3,0.2,0.5
	c0,0.1,0,0.1,0,0.2c0.2,0.3,0.4,0.5,0.6,0.9c0.2,0.3,0.3,0.7,0.4,1.1c0,0.1,0,0.1-0.1,0.3c-0.2-0.2-0.4-0.3-0.4-0.5
	c-0.2-0.6-0.5-1.2-0.7-1.9c0-0.1-0.1-0.3-0.2-0.4c0,0.1,0,0.2,0,0.3c-0.2,0-0.3,0.1-0.2,0.2c0.1,0.3,0.2,0.5,0.3,0.7
	c0,0.1,0,0.2,0,0.4C43.1,12,43,11.9,43,11.9c0,0.1,0,0.1,0,0.2c0,0.1-0.1,0.1-0.1,0.2c-0.2,0.2-0.2,0.4-0.1,0.7
	c0.1,0.4,0.1,0.9,0.2,1.3c0,0.1,0.3,0.4,0.4,0.3c0.4-0.2,0.6,0.1,0.8,0.4c0.1,0.1,0.1,0.2,0.1,0.3c0,0-0.1,0-0.1,0
	c-0.1-0.2-0.2-0.4-0.3-0.5c0,0,0,0-0.1,0c0,0.1,0,0.2,0.1,0.3c0.4,0.7,0.4,1.5,0.5,2.3c0,0.1,0,0.3-0.2,0.3c-0.1,0,0,0.4,0,0.6
	c0,0.1,0.1,0.2,0,0.2c-0.1,0.3,0,0.5,0.2,0.7c0.3,0.3,0.3,0.6,0,0.9c-0.1-0.2-0.1-0.4-0.2-0.5c0,0-0.1-0.1-0.1-0.1
	c-0.1-0.1-0.1-0.1-0.2-0.2c0-0.1-0.1-0.1-0.1-0.2c-0.1,0.1-0.1,0.1-0.2,0.2c0,0,0,0.1-0.1,0.1c0-0.1-0.1-0.3-0.1-0.4c0,0,0,0-0.1,0
	c-0.1,0.2-0.2,0.5-0.2,0.7c0,0.1,0.1,0.2,0.2,0.3c0,0,0.1,0,0.2,0c0,0,0,0.1,0,0.1c-0.2,0.4,0.1,0.7,0.3,0.9c0,0,0,0,0,0.1
	c0,0.3,0.3,0.6,0.2,1c-0.1,0.3-0.1,0.6-0.1,0.8c0,0.5-0.4,0.8-0.6,1.2c-0.1,0.1-0.1,0.3-0.2,0.4c0,0-0.1-0.1-0.1-0.2
	c-0.4,0.2-0.5,0.8-0.2,1.1c0.4,0.4,0.5,0.8,0.2,1.4C43.1,27,43,27.2,43,27.3c-0.2-0.2-0.5-0.4-0.8-0.6c0,0.3-0.1,0.5-0.1,0.7
	c0,0,0,0,0,0c-0.1-0.4-0.2-0.8-0.4-1.2c-0.1,0.2-0.2,0.3-0.3,0.4c0,0-0.1,0-0.1,0c0.1-0.6-0.4-0.8-0.6-1.2c-0.2,0.1-0.4,0.2-0.5,0.4
	c0,0-0.1,0.1-0.1,0.1c-0.1,0.5-0.5,0.9-0.6,1.3c0,0,0,0.1-0.1,0.1c-0.2,0.2-0.2,0.4-0.2,0.7c0.1,0.5,0,0.9-0.4,1.4
	c-0.1-0.1-0.1-0.2-0.2-0.3c-0.1-0.3-0.3-0.7-0.4-1c0,0,0-0.1-0.1-0.1c-0.1-0.4-0.3-0.8-0.4-1.3c-0.1,0.1-0.2,0.3-0.3,0.3
	c0,0-0.2-0.1-0.3-0.1c0.1-0.1,0.1-0.2,0.2-0.2c-0.3,0-0.4-0.1-0.6-0.3c-0.1-0.2-0.2-0.2-0.4-0.1c-0.4,0.1-0.8,0.2-1.2,0.3
	c-0.1,0-0.2-0.1-0.3-0.1c-0.1,0-0.2-0.1-0.2-0.1c-0.3,0.2-0.7,0.1-0.9-0.2c-0.1-0.2-0.3-0.3-0.4-0.4c-0.2,0.2-0.2,0.4-0.1,0.6
	c0.1,0.2,0.3,0.4,0.4,0.6c0,0,0.1,0,0.2,0c0,0.1,0.3,0.4,0.4,0.4c0.3,0,0.4-0.3,0.5-0.5c0.1,0,0.3,0.1,0.4,0.2
	c0.1,0.1,0.3,0.3,0.2,0.3c-0.2,0.4-0.3,0.8-0.6,1c-0.1,0.1-0.3,0.2-0.5,0.4c-0.3,0.2-0.5,0.5-0.8,0.7c-0.3,0.2-0.6,0.3-0.9,0.5
	c-0.2,0.1-0.2,0-0.2-0.2c0.1-0.3-0.1-0.6-0.3-0.8c-0.2-0.3-0.4-0.6-0.6-0.9c-0.2-0.4-0.5-0.8-0.8-1.1c-0.1-0.1-0.1-0.2-0.2-0.3
	c0,0.1-0.1,0.2-0.2,0.3c0,0-0.1,0-0.1,0c0.3,0.4,0.5,0.8,0.8,1.2c0,0,0,0,0,0c0,0.4,0.3,0.8,0.5,1.1c0.1,0.2,0.3,0.3,0.5,0.5
	c0.1,0.1,0.3,0.2,0.4,0.4c0,0.3,0.6,0.4,0.8,0.2c0.2-0.1,0.4-0.3,0.5-0.4c0,0,0.1,0,0.2,0c0,0.1,0,0.2,0,0.3
	c-0.2,0.5-0.4,1.1-0.8,1.6c-0.2,0.2-0.4,0.4-0.6,0.6c-0.2,0.3-0.5,0.6-0.7,1c-0.1,0.2-0.2,0.3-0.1,0.6c0.2,0.4,0.2,0.9,0.2,1.3
	c0,0.3-0.2,0.5-0.5,0.7c-0.3,0.2-0.5,0.4-0.7,0.6c0,0,0,0.1,0,0.1c0.2,0.6,0.2,0.6-0.4,0.9c-0.1,0-0.1,0.1-0.1,0.2
	c0,0.1,0,0.3-0.1,0.4c-0.3,0.3-0.6,0.7-0.9,0.9c-0.2,0.2-0.6,0.2-0.9,0.3c-0.2,0.1-0.4,0.1-0.6,0.2c-0.2,0.1-0.4,0-0.4-0.2
	c0-0.4-0.2-0.6-0.4-0.9c-0.1-0.1-0.1-0.2-0.1-0.3c0-0.4-0.1-0.8-0.4-1.1c-0.3-0.4-0.3-0.8,0.1-1.2c0.2-0.2,0.2-0.4,0.1-0.7
	c-0.2-0.6-0.4-1.1-0.9-1.5c-0.1,0-0.1-0.2-0.1-0.3c0-0.1,0.1-0.2,0.1-0.3c0.1-0.2,0.1-0.4,0-0.6c-0.2-0.2-0.3-0.4-0.6-0.3
	c-0.2,0.1-0.3,0-0.4-0.2c-0.1-0.2-0.2-0.3-0.4-0.2c-0.3,0.1-0.6,0.2-0.9,0.3c-0.1,0-0.2,0-0.4,0c-0.3,0-0.5,0-0.8,0.1
	c-0.2,0.1-0.3,0-0.5-0.1c-0.2-0.2-0.4-0.3-0.7-0.5c0,0-0.1-0.1-0.1-0.1c-0.2-0.3-0.5-0.6-0.6-0.9c-0.1-0.1-0.1-0.3,0-0.4
	c0.2-0.4,0.2-0.9,0.1-1.3c0-0.1,0-0.3,0.1-0.5c0.1-0.2,0.3-0.5,0.4-0.7c0.1-0.2,0.3-0.3,0.5-0.4c0.3-0.1,0.5-0.3,0.4-0.7
	c0-0.3,0.2-0.5,0.4-0.6C22.7,25.9,22.9,25.7,22.8,25.3z M29.1,23.7C29.1,23.8,29.1,23.8,29.1,23.7c0.2,0.1,0.4,0,0.5,0
	c0.2,0,0.3,0,0.5-0.1c0.3-0.3,0.6-0.3,1-0.1c0.2,0.1,0.5,0.1,0.7,0c0.2-0.1,0.2-0.3,0.1-0.5c-0.1-0.1-0.3-0.2-0.5-0.3
	c-0.2-0.1-0.4-0.3-0.5-0.4c0.1-0.3,0.1-0.5,0.2-0.8c-0.3,0.2-0.5,0.3-0.7,0.5c0,0,0,0.1,0,0.1c0.1,0,0.2,0.1,0.3,0.1
	c-0.2,0.1-0.3,0.2-0.4,0.3c-0.1-0.2-0.1-0.3-0.2-0.5c0,0-0.1,0-0.2,0c-0.1-0.2-0.2-0.1-0.3,0.1c-0.1,0.3-0.1,0.6-0.3,0.8
	c-0.2,0.3-0.1,0.5,0.2,0.7C29.3,23.6,29.2,23.7,29.1,23.7z M33.7,22.6c0-0.1,0-0.1-0.1-0.2c-0.3-0.2-0.3-0.3,0.1-0.5
	c0.3-0.2,0.3-0.2,0.1-0.5c0,0-0.1-0.1-0.1-0.1c-0.1-0.2-0.3-0.2-0.5-0.1c-0.2,0.1-0.4,0.3-0.5,0.5c-0.1,0.1-0.1,0.3-0.1,0.4
	c0.1,0.3,0.3,0.5,0.5,0.8c0.2,0.2,0.2,0.4,0.1,0.6c0,0.1,0,0.3,0.1,0.4c0.1,0.1,0.2,0.2,0.3,0.3c0.2,0.1,0.4,0.2,0.6,0
	c0.2-0.1,0.1-0.3,0.1-0.5c-0.1-0.2-0.1-0.5-0.2-0.8C34.1,22.7,33.9,22.6,33.7,22.6z M34.9,21C34.9,21,34.9,21,34.9,21
	c-0.4,0.3-0.4,0.6-0.1,1c0.1,0.1,0.2,0.3,0.3,0.2c0.1-0.1,0.2-0.3,0.2-0.4c0-0.1-0.1-0.2-0.2-0.3C35.1,21.3,35,21.2,34.9,21z"/>
<path d="M5.2,11.7c-0.1,0.1-0.3,0.2-0.4,0.2c0,0,0,0,0-0.1c0-0.1,0-0.1,0.1-0.2c-0.3,0-0.2,0.5-0.5,0.3c0.1-0.3,0.2-0.7,0.3-1
	c0.1-0.4,0.3-0.8,0.8-0.9c0.2,0,0.3-0.2,0.3-0.4c0-0.1,0-0.2,0-0.4c0-0.2,0.1-0.3,0.3-0.3c0.3,0,0.3-0.1,0.4-0.3C6.5,8.4,7,8,7.4,8
	c0.1,0.6,0.2,1.2,0.3,1.9c0,0,0.1,0,0.2-0.1C8,10.2,8.3,10,8.5,10.1c0,0.3,0.1,0.4,0.3,0.4c0.1,0.2,0.2,0.5,0.3,0.7
	c0,0.1-0.1,0.2-0.1,0.4c0,0-0.1,0-0.1,0C9,11.7,9.2,11.9,9.4,12c0.1,0,0.2,0,0.3,0c0.1,0,0.1-0.2,0.1-0.3c0,0,0.1,0,0.2,0
	c0,0.3,0.1,0.7,0.4,0.9c0.2,0.2,0.4,0.2,0.6,0c0.2-0.3,0.4-0.6,0.5-0.9c0.1-0.3,0.3-0.5,0.5-0.8c0.1-0.1,0.1-0.2,0.2-0.3
	c0.1-0.3,0.3-0.3,0.5-0.3c0.1,0,0.1,0.2,0.1,0.2c-0.1,0.1-0.3,0.3-0.4,0.3c-0.3,0-0.3,0.2-0.4,0.4c0,0.1,0,0.2,0,0.4
	c0,0.1,0,0.2-0.1,0.3c-0.3,0.2-0.1,0.4-0.2,0.6c0.1-0.1,0.2-0.1,0.3-0.1c-0.1,0.3-0.2,0.5-0.3,0.8c0,0,0.1,0,0.1,0
	c0.3-0.2,0.6-0.5,0.8-0.7c0,0,0.1,0.1,0.1,0.2c0,0.1-0.1,0.2-0.1,0.3c0,0.1-0.2,0.2-0.2,0.2c0.1,0.4-0.2,0.4-0.4,0.5
	c-0.1,0-0.2-0.1-0.4-0.1c-0.1,0.2-0.3,0.4-0.5,0.6c0,0-0.1,0.1-0.2,0.1c-0.2-0.1-0.2,0.1-0.4,0.2c-0.1,0.1-0.3,0.2-0.5,0.3
	c-0.2,0.2-0.4,0.4-0.5,0.6c-0.1,0.1-0.1,0.2,0,0.4c0.1,0.1,0,0.3,0,0.5c0.1,0.2,0.3,0.3,0.4,0.5c0.1,0.3,0.2,0.5,0.5,0.7
	c0,0,0.1,0.2,0,0.2c-0.1,0.3-0.2,0.5-0.1,0.8c0,0.2,0.2,0.4,0.3,0.5c0.1,0,0.3,0,0.3-0.1c0.1-0.1,0.1-0.3,0.1-0.5
	c0-0.2,0.1-0.4,0.3-0.5c0.3-0.1,0.4-0.4,0.4-0.7c0-0.3,0-0.5,0.2-0.8c0.1-0.1,0.1-0.4,0.1-0.5c0-0.2,0.1-0.4,0.3-0.4
	c0.2,0,0.4,0.2,0.4,0.4c0,0,0,0.1,0,0.1c0.3,0.2,0.1,0.4,0.1,0.6c-0.1,0.2,0,0.5,0.3,0.6c0.1,0,0.2,0,0.3-0.1
	c0.1-0.1,0.1-0.2,0.2-0.3c0,0,0.1,0.1,0.1,0.1c0,0.3,0.2,0.6,0,1c-0.1,0.1,0.1,0.3,0.1,0.5c0.1,0.1,0.3,0.2,0.2,0.4
	c0,0.1,0.1,0.1,0.1,0.2c0.2,0.2,0.1,0.4,0,0.5c0,0.1-0.2,0.2-0.3,0.1c-0.1,0-0.2,0.1-0.3,0.1c-0.2,0.2-0.3,0.2-0.5,0.1
	c0,0-0.1,0-0.1,0c-0.6-0.3-1.1,0.1-1.5,0.6c0.1-0.1,0.2-0.1,0.3-0.2c0.2-0.1,0.4-0.2,0.6-0.2c0.1,0,0.2,0.1,0.3,0.1
	c-0.1,0-0.2,0.1-0.3,0.1c0,0,0,0,0,0c0,0.2,0,0.3,0.1,0.4c0,0.2,0.3,0.4,0.5,0.3c0.1,0,0.1,0,0.2,0c0,0.1,0,0.1-0.1,0.2
	c0,0-0.1,0.1-0.2,0.1c-0.2,0.1-0.5,0.1-0.8,0.2c-0.1-0.2,0.1-0.3,0.2-0.4c-0.3,0-0.7,0.1-1,0.3c-0.1,0.1-0.1,0.3-0.2,0.5
	c-0.1,0-0.2,0.1-0.4,0.1c0,0,0-0.1-0.1-0.2c-0.2,0.3-0.4,0.5-0.6,0.8c0-0.1-0.1-0.1-0.1-0.2c0,0.2,0,0.3,0,0.4c0,0.4,0,0.5-0.4,0.6
	c-0.2,0.1-0.4,0.2-0.5,0.3c-0.2,0.1-0.2,0.3-0.2,0.6c0,0.3,0.1,0.6,0.1,0.9c0,0.1-0.1,0.2-0.1,0.2c-0.1-0.1-0.2-0.1-0.2-0.2
	c0-0.1,0-0.3,0-0.5c0.1-0.6-0.6-1-1-1.1c0,0.1,0,0.1,0,0.2c-0.1,0-0.2,0-0.3,0c-0.1,0-0.1-0.1-0.1-0.2c-0.4-0.3-0.8,0-0.8,0.4
	c0,0,0,0.1,0,0.1c-0.2,0.5-0.2,0.9-0.1,1.4c0.1,0.3,0.3,0.6,0.6,0.6c0.1,0,0.2-0.1,0.3-0.1c0.1-0.1,0.1-0.2,0.2-0.2
	c0.1,0,0.2,0,0.3,0c0,0.1,0,0.2,0,0.2c-0.1,0.3-0.2,0.6-0.4,0.9c0.1,0,0.2,0.1,0.3,0.1c0.4,0.2,0.5,0.3,0.4,0.8
	C8,28.2,8,28.5,8.2,28.8c0,0,0.1,0.1,0.2,0.1C8.7,28.8,8.8,29,9,29.3c0.2-0.1,0.4-0.2,0.5-0.3c0.1,0,0.2-0.1,0.3-0.1
	c0,0.1,0,0.2,0,0.3c0,0.1,0,0.1,0.1,0.2c0,0,0,0,0.1,0c0-0.1,0-0.2,0-0.3c0.2-0.1,0.3,0,0.5,0.1c0.3,0.2,0.5,0.3,0.8,0.5
	c0.2,0.1,0.5,0.1,0.5,0.4c0,0,0,0,0,0c0.5,0.3,0.6,1,1.3,1c0.2,0,0.3,0.3,0.5,0.5c0.1,0.1,0,0.2,0.1,0.3c0.1,0.2,0.1,0.3-0.1,0.4
	c-0.1,0.1-0.2,0.2,0,0.3c0.1-0.1,0.2-0.1,0.3-0.1c0.1,0,0.1,0.1,0.2,0.2c0.2,0,0.5,0.1,0.6,0.3c0.3,0.3,0.6,0.4,1,0.5
	c0.1,0,0.2,0.1,0.3,0.2c0.2,0.1,0.3,0.2,0.5,0.3c0.2,0.1,0.3,0.5,0.2,0.8c-0.2,0.2-0.3,0.4-0.5,0.6c-0.1,0.1-0.2,0.3-0.1,0.4
	c0.1,0.5-0.1,0.9-0.3,1.3c0,0.1-0.2,0.1-0.3,0.1c-0.2,0-0.4,0-0.6,0.1c-0.3,0.1-0.4,0.2-0.4,0.5c0,0.1,0,0.2-0.1,0.3
	c-0.1,0.2-0.3,0.4-0.5,0.6c-0.2,0.3-0.4,0.3-0.7,0.2c-0.1-0.1-0.2-0.1-0.4-0.2c0.2,0.2,0.3,0.3,0.4,0.5c0,0.1,0.1,0.2,0,0.2
	c0,0.1-0.1,0.1-0.2,0.1c-0.2,0-0.4,0-0.5,0c0,0.1,0,0.2,0,0.4c-0.1,0-0.3-0.1-0.4-0.1c0.1,0.2,0.1,0.4,0.2,0.6
	c-0.1,0.1-0.3,0.1-0.3,0.2c0,0.1,0.1,0.2,0.2,0.2c0.2,0.1,0.3,0.2,0.1,0.4c-0.2,0.2-0.1,0.4,0.1,0.7c0.1,0.1,0.2,0.3,0.3,0.4
	c-0.4,0.1-0.8-0.1-1-0.5c-0.1-0.1-0.2-0.3-0.3-0.4c-0.3-0.3-0.3-0.7-0.3-1.2c0-0.3,0-0.5-0.2-0.7c-0.1-0.2-0.1-0.5-0.1-0.8
	c0-0.3,0-0.6,0-0.9c-0.1-0.5-0.1-1,0-1.6c0-0.6-0.2-1.1-0.7-1.5c-0.5-0.3-0.6-0.8-0.8-1.3c-0.2-0.3-0.3-0.7-0.5-1
	c0-0.1-0.1-0.2-0.1-0.3c0-0.2,0-0.5,0.1-0.7c0-0.1,0.1-0.3,0.2-0.4c0.5-0.4,0.4-0.8,0.2-1.2c-0.1-0.2-0.2-0.3-0.3-0.5
	c0,0-0.1,0-0.1,0c-0.1,0.4-0.2,0.2-0.4,0c-0.2-0.2-0.4-0.4-0.5-0.7c-0.1-0.1-0.1-0.3-0.1-0.4c-0.1-0.3-0.4-0.5-0.6-0.8
	c-0.1-0.1-0.2-0.2-0.2-0.3c-0.1-0.2-0.2-0.4-0.5-0.5c-0.3-0.1-0.4-0.4-0.6-0.7c-0.3-0.3-0.3-0.6-0.3-1c0-0.2-0.1-0.5-0.2-0.7
	c-0.3-0.6-0.4-1.3-0.5-2c0,0,0-0.1,0-0.1c-0.2-0.3-0.2-0.7-0.3-1c-0.1-0.2-0.1-0.4-0.1-0.6c0-0.9,0.1-1.7,0.5-2.4
	c0.1-0.3,0.3-0.6,0.4-0.9c0-0.2,0-0.4,0-0.6c0,0,0-0.1,0-0.1C5.2,16,5.2,15.5,5.3,15c0-0.2,0.1-0.3,0.1-0.5c0-0.2,0.1-0.4,0.1-0.6
	c0.1-0.5,0.2-1.1,0-1.6C5.4,12.1,5.3,11.9,5.2,11.7z M8.9,21.1c-0.1-0.4-0.1-0.8,0.4-1c0,0.1,0.1,0.2,0.1,0.3c0,0.2,0,0.3,0,0.5
	c0,0,0,0,0.1,0c0.1-0.1,0.1-0.1,0.2-0.2c0,0,0,0,0,0.1c0.1,0,0.2,0,0.3,0c0-0.1,0-0.2,0-0.3c-0.2-0.3-0.6-0.5-0.9-0.4
	c-0.1,0-0.1,0.1-0.1,0.1c-0.1,0.2-0.2,0.5-0.3,0.7c0,0.1,0,0.2,0.2,0.2C8.7,21.1,8.8,21.1,8.9,21.1z M8.3,19.4
	C8.3,19.4,8.3,19.5,8.3,19.4c0.1,0.1,0.3,0.1,0.5,0.2c0,0,0,0.1,0.1,0.1c0.1,0.1,0.3,0.1,0.5,0.1c0-0.1,0.1-0.3,0-0.4
	c-0.1-0.2-0.3-0.3-0.4-0.4C8.8,19.2,8.6,19.3,8.3,19.4z M10.3,21c-0.4,0-0.4,0-0.5,0.1c0.1,0.1,0.3,0.1,0.4,0.2
	c0.1,0.2,0.2,0.2,0.3,0C10.4,21.2,10.4,21.1,10.3,21z M9.1,21.2c0.2,0.2,0.5,0.2,0.7-0.1C9.6,21.2,9.4,21.2,9.1,21.2z"/>
<path d="M16.4,13.6c-0.1,0-0.1,0-0.2,0.1c0,0,0-0.1,0-0.1c0.1-0.1,0.1-0.2,0.3-0.3c0.2-0.1,0.2-0.2,0.1-0.3c-0.1-0.2-0.1-0.4,0-0.7
	c0.1-0.4,0.2-0.8,0.2-1.2c0-0.4-0.5-0.8-1.1-0.8c0.1-0.2,0.1-0.3,0.1-0.4c0.2-0.3,0.2-0.5-0.1-0.7c0,0,0-0.2,0-0.2
	C15.7,9,15.8,9,15.9,9c0,0,0,0.1,0.1,0.1c0.3,0,0.7-0.1,1-0.2c0.1,0,0.1-0.3,0.1-0.4c0-0.1-0.2-0.2-0.3-0.3c0.2-0.1,0.4-0.2,0.6-0.4
	c0,0,0.1,0.1,0.2,0.1c0.1,0,0.1,0.1,0.2,0.1c0.1,0,0.1-0.1,0.2-0.2c0,0-0.1-0.1-0.1-0.1c-0.1-0.1-0.1-0.2,0-0.3
	c0.1-0.1,0.3-0.2,0.5,0c0.2,0.2,1,0.2,1.3,0C20,7,20.5,7,21.1,7c0.4,0,0.5,0.4,0.8,0.6c-0.3,0.4-0.7,0.1-1,0.3c0.1,0,0.2,0,0.3,0.1
	c0,0.1,0,0.1,0,0.2c0.1-0.1,0.2-0.2,0.4-0.2c0,0,0.1,0.1,0.1,0.1c-0.2,0.2-0.3,0.4-0.5,0.6c0,0,0.1,0,0.1,0c0.3-0.1,0.6-0.2,1-0.2
	c0.1,0,0.1,0,0.2,0c0.1,0,0.2,0,0.2,0.1c0,0,0,0.1-0.1,0.2c-0.4,0.3-0.7,0.7-0.9,1.2c-0.1,0.2-0.1,0.5-0.1,0.7c0,0.1,0,0.3,0.1,0.4
	c-0.1,0-0.2-0.1-0.2-0.1c-0.1,0-0.2,0.1-0.2,0.1c0,0,0,0.1,0,0.2c0.3,0.2,0.2,0.4,0.1,0.6c0,0.1,0,0.2,0,0.2
	c-0.1,0.1-0.1,0.2-0.2,0.3c0.2,0.3-0.3,0.2-0.3,0.3c0,0.2,0,0.3,0,0.5c-0.1-0.1-0.2-0.1-0.2-0.1c0.1,0.2,0.1,0.4,0.2,0.6
	c0,0.1-0.1,0.2-0.2,0.2c-0.2,0-0.2-0.1-0.2-0.2c0,0,0-0.1,0-0.2c-0.1,0.2-0.2,0.3-0.3,0.4c0.1,0,0.3,0.1,0.5,0.2
	c-0.2,0.2-0.4,0.3-0.6,0.4c-0.3,0.1-0.5,0.1-0.8,0.2c-0.2,0.1-0.3,0.2-0.4,0.3c-0.2,0.3-0.5,0.6-0.9,0.5c-0.1,0-0.3,0.1-0.4,0.2
	c0,0.3-0.1,0.6-0.3,0.8C17,16.6,17,16.8,16.9,17c0,0,0,0.1-0.1,0.1c-0.1,0.1-0.2,0.2-0.2,0.4c-0.1-0.1-0.2-0.2-0.3-0.3
	c-0.5-0.3-0.3-0.9-0.4-1.3c0-0.2,0-0.4,0-0.6c-0.1-0.5,0.1-0.8,0.5-1c0.2-0.1,0.2-0.2,0.1-0.3C16.5,13.9,16.5,13.7,16.4,13.6z"/>
<path d="M46.5,29.3c0.2,0.7,0,1.2-0.2,1.8c-0.3,0.8-0.6,1.6-0.9,2.3c0,0.1-0.1,0.2-0.2,0.2c0-0.1,0-0.2,0-0.3
	c-0.1,0.1-0.1,0.1-0.1,0.2c0-0.1,0-0.1-0.1-0.2c-0.6,0.6-1,1.3-1.6,1.9c0-0.1,0-0.3,0-0.4c0.1-0.4,0.2-0.8,0.3-1.3
	c0.1-0.3,0.2-0.7,0.4-0.9c0.5-0.5,0.7-1.1,1-1.7c0.1-0.2,0.2-0.3,0.3-0.5c0.1-0.2,0.2-0.4,0.2-0.6c0-0.1,0-0.2,0.1-0.3
	c0-0.1,0.1-0.1,0.2-0.1c0,0.1,0,0.1,0.1,0.2c0.1,0.1,0.1,0.2,0.2,0.2C46.3,29.7,46.4,29.5,46.5,29.3z"/>
<path d="M12.6,11.5c0.3-0.6,0.5-0.6,0.8-0.5c-0.1,0.2-0.1,0.4-0.2,0.6c0.2,0,0.3,0,0.4-0.1c0.1,0.1,0.2,0.2,0.3,0.3
	c0,0.1-0.1,0.2-0.1,0.3c0.3,0.4,0.5,0.8,0.3,1.3c-0.1,0.1-0.2,0.2-0.2,0.2c0,0.1,0.1,0.2,0.2,0.3c0.3,0.2,0.4,0.8,0.2,1
	c-0.1,0.1-0.2,0.1-0.4,0.2c-0.1-0.2-0.1-0.4-0.2-0.6c-0.2,0.2-0.2,0.3-0.1,0.5c0.1,0.2,0.1,0.4,0.1,0.6c0,0.1-0.1,0.2-0.1,0.2
	c0,0-0.1-0.1-0.2-0.1c-0.1-0.1-0.1-0.2-0.2-0.3c-0.1,0.3,0.3,0.5,0.1,0.8c-0.3-0.1-0.3-0.4-0.4-0.6c-0.1-0.1-0.1-0.3-0.2-0.4
	c-0.1-0.1-0.2-0.4-0.5-0.2c0.1-0.3,0.2-0.4,0.4-0.3c0.5,0,0.9-0.5,0.8-0.9c0-0.1,0-0.2,0-0.3c0-0.1-0.1-0.3-0.2-0.4
	c0-0.1-0.1-0.2-0.1-0.3c-0.1,0-0.2,0.1-0.2,0.1c-0.1-0.1-0.3-0.2-0.4-0.3c-0.2-0.1-0.2-0.3-0.2-0.5c0-0.2,0.2-0.5,0-0.7
	c-0.1-0.1,0.4-0.5,0.5-0.5c0.1,0,0.1,0.1,0.1,0.2C12.8,11.1,12.7,11.2,12.6,11.5C12.6,11.4,12.6,11.4,12.6,11.5z"/>
<path d="M14.2,8.6c0.1-0.1,0.3-0.1,0.4-0.2c0.1-0.1,0.2-0.3,0.3-0.5C15,7.8,15,7.7,15.1,7.5c0.1,0.2,0.3,0.4,0.5,0.3
	c0.3,0,0.2-0.3,0.4-0.4c-0.3,0-0.5-0.1-0.7-0.1c-0.1,0-0.2-0.1-0.2-0.2c0.1-0.1,0.1-0.2,0.2-0.2c0.5-0.2,1-0.4,1.6-0.5
	c0.3-0.1,0.6,0.1,0.9,0.2c0.1,0,0.2,0.2,0.2,0.4c0,0-0.1,0.2-0.2,0.2c-0.4,0.3-0.8,0.6-1.3,0.8C16,8.4,15.6,8.6,15.3,9
	c-0.1,0.1-0.2,0.1-0.4,0.2c-0.2,0.1-0.2,0.2-0.3,0.4c0,0.2-0.3,0.2-0.5,0.1c-0.1-0.1-0.2-0.1-0.3-0.1c-0.1,0-0.2-0.1-0.4-0.2
	c0,0,0-0.1,0-0.1c0.1,0,0.1-0.1,0.1,0c0.3,0.1,0.4-0.1,0.6-0.2C14.3,8.9,14.3,8.7,14.2,8.6C14.3,8.6,14.2,8.6,14.2,8.6z"/>
<path d="M45.1,18.9c0.1,0,0.3-0.1,0.4-0.1c0-0.1,0-0.3,0-0.4c0.4,0,0.2-0.3,0.2-0.5c0-0.1-0.1-0.3-0.2-0.4c-0.1-0.2-0.2-0.4-0.4-0.6
	c-0.2-0.2-0.2-0.4-0.2-0.6c0-0.1-0.1-0.3-0.2-0.4c0-0.1-0.1-0.1-0.1-0.2c0,0,0,0,0.1-0.1c0.1,0.1,0.2,0.1,0.3,0.2
	c0.2,0.1,0.4,0.1,0.5,0.2c0.1,0.1,0.2,0.2,0.2,0.2c0,0,0,0.1-0.1,0.2c0,0.1,0,0.2-0.1,0.3c-0.1,0-0.2-0.1-0.3-0.1c0,0,0,0,0,0
	c0.1,0.2,0.3,0.3,0.4,0.5c0.2,0.2,0.3,0.5,0.4,0.8c0,0.2,0.2,0.5,0.3,0.7c0.2,0.3,0.1,0.4-0.2,0.6c-0.1,0.1-0.2,0.2-0.3,0.4
	c0,0-0.1,0-0.1-0.1c-0.1,0.1-0.1,0.3-0.2,0.4c0,0-0.1,0-0.1,0c0,0.2,0,0.3,0,0.6c-0.4-0.2-0.6-0.6-0.8-0.8
	C45.1,19.5,45,19.2,45.1,18.9z"/>
<path d="M44.2,26.5c0.1,0.1,0.2,0.2,0.3,0.4c-0.1,0.3-0.2,0.6,0,0.9c0.2-0.2,0.4-0.3,0.7-0.5c0,0.2,0,0.4-0.3,0.5
	c-0.1,0.1-0.3,0.1-0.2,0.3c0.1-0.1,0.2-0.1,0.3-0.2c0,0.1,0,0.2,0,0.3c-0.3,0.1-0.1,0.3-0.1,0.5c0,0.1,0.1,0.1,0.1,0.2
	c0,0.1-0.1,0.2-0.1,0.2c-0.1,0-0.1-0.1-0.2-0.1c0,0.1,0,0.2,0,0.3c0,0,0,0-0.1,0c0-0.1-0.1-0.1-0.1-0.2c0-0.4,0-0.7,0-1.1
	c0,0,0-0.1,0-0.1c0,0-0.1,0-0.1,0c-0.1,0.5-0.2,0.9-0.4,1.4c0,0-0.1-0.1-0.1-0.1c-0.2,0-0.3,0.1-0.5,0.1c-0.1-0.3-0.1-0.5-0.2-0.8
	c0-0.2,0-0.3,0.2-0.4c0,0,0.1-0.1,0.1-0.1C43.8,27.5,44,27,44.2,26.5z"/>
<path d="M42.1,29.3c-0.1-0.1-0.2-0.2-0.2-0.3c0-0.1-0.1-0.1-0.1-0.2c0.1,0,0.2-0.1,0.2-0.1c0.2,0.1,0.4,0.2,0.6,0.3
	c0.1,0.1,0.1,0.2,0.2,0.3c0,0.1,0.1,0.1,0.2,0.2c0,0.1,0,0.3,0,0.5c0.3,0.1,0.5-0.1,0.6-0.4c0.1,0.1,0.3,0.2,0.4,0.3
	c0.3-0.2,0.6-0.4,0.9-0.6c0,0.3-0.2,0.5-0.4,0.6c-0.4,0.3-1,0.6-1.5,0.7c-0.1,0-0.2-0.1-0.3-0.1c-0.2-0.1-0.3-0.3-0.5-0.4
	c-0.2-0.1-0.2-0.3-0.3-0.5C41.9,29.6,42,29.4,42.1,29.3z"/>
<path d="M10.3,9.5c0.2,0,0.2,0,0.1,0.2c0.1,0.1,0.2,0.2,0.3,0.3c0.1,0.1,0.3,0,0.4,0.1c-0.2,0.4-0.7,0.8-0.4,1.4
	c-0.3-0.1-0.5-0.2-0.6,0c-0.3,0-0.6-0.1-1-0.1c0.1-0.2,0.2-0.3,0.3-0.4c0.3-0.2,0.4-0.4,0.2-0.7c-0.1-0.1,0-0.3-0.1-0.4
	C9.8,9.6,10,9.5,10.3,9.5z"/>
<path d="M13.2,9c0-0.1,0-0.2-0.2-0.2c-0.2,0-0.4-0.1-0.6-0.1c0,0-0.1-0.2-0.1-0.2c0.2-0.2,0.4-0.4,0.6-0.7c0.1,0.3,0.3,0.5,0.7,0.4
	c0,0.1,0,0.1,0,0.2c0.3,0.2,0,0.4,0,0.6c-0.1,0.2-0.1,0.3-0.2,0.5c0,0.1,0.1,0.2,0.2,0.2c0.1,0.1,0.2,0.1,0.3,0.1
	c0.1,0.1,0.3,0.1,0.2,0.3c-0.2,0.2-0.3,0.3-0.5,0.2c0,0-0.1,0-0.1,0c-0.2,0-0.3-0.1-0.5-0.1c-0.3-0.2-0.3-0.3,0-0.5
	c0.1-0.1,0.1-0.4,0-0.5c0,0-0.1-0.1-0.1-0.1c0.1,0,0.1,0,0.2-0.1C13.1,9.1,13.1,9.1,13.2,9z"/>
<path d="M27,9.1c-0.1,0.5-0.3,0.6-0.9,0.3c0,0.1,0,0.1,0.1,0.2c0.2,0.2,0.5,0.4,0.7,0.7c0,0,0.1,0.2,0.1,0.2
	c-0.1,0.1-0.2,0.2-0.3,0.2c0,0-0.1-0.1-0.2-0.2c-0.1-0.2-0.1-0.3-0.2-0.5c0,0-0.1,0-0.1,0c-0.1,0.4-0.1,0.7-0.2,1.1
	c-0.2-0.1-0.3-0.3-0.4-0.5c-0.1-0.2-0.1-0.4-0.3-0.5c-0.2-0.2-0.1-0.5,0.2-0.6c0.2-0.1,0.3-0.1,0.4-0.2C26.4,9.1,26.7,9,27,9.1z"/>
<path d="M24,21.1c-0.2,0-0.6,0.1-0.9,0.1c0,0,0,0,0-0.1c0.1-0.1,0.1-0.1,0.2-0.2c-0.1,0-0.2-0.1-0.3-0.2c0.1-0.1,0.3-0.2,0.3-0.3
	c0.1-0.1,0.1-0.3,0-0.4c0-0.1-0.2-0.2-0.3-0.3c0-0.1-0.1-0.3-0.1-0.4c0-0.1,0-0.3,0-0.4c0.1-0.2,0.2-0.3,0.5-0.1
	c0.2,0.1,0,0.2,0,0.3c0,0.1-0.1,0.1-0.1,0.1c0.2,0.4,0.4,0.7,0.6,1.1c0,0,0.1,0,0.2,0.1c0,0,0,0.1-0.1,0.2
	C24.1,20.9,24.1,20.9,24,21.1z"/>
<path d="M33.9,34.8c0.1,0.3,0.1,0.4,0,0.7c-0.2,0.4-0.4,0.9-0.5,1.4c-0.1,0.2-0.2,0.4-0.4,0.5c-0.2,0.1-0.4-0.1-0.3-0.2
	c0.2-0.4,0.3-0.8,0.3-1.2c0,0,0.1-0.1,0.1-0.1c0.2-0.2,0.4-0.5,0.6-0.7C33.7,34.9,33.8,34.9,33.9,34.8z"/>
<path d="M31.9,10.5c0,0.2-0.1,0.3-0.1,0.4c-0.1,0.5-0.2,1-0.2,1.4c0,0.2,0.2,0.4,0.4,0.5c0,0.1,0.1,0.1,0.2,0.2
	c-0.5,0.2-0.9,0-0.9-0.6c0-0.4,0-0.7,0-1.1C31.2,11,31.3,10.7,31.9,10.5z"/>
<path d="M20.4,15.9c0.3,0,0.6-0.1,0.9-0.1c0.1,0,0.2,0,0.3,0.1c0.1,0,0.1,0.2,0,0.3c0,0.1-0.1,0.1-0.2,0.2c-0.1,0.1-0.3,0.1-0.4,0.2
	c-0.2,0.2-0.4,0.2-0.6,0C20.3,16.4,20.2,16.2,20.4,15.9C20.3,15.9,20.3,15.9,20.4,15.9C20.4,15.9,20.4,15.9,20.4,15.9z"/>
<path d="M45,26.4c-0.1-0.1-0.1-0.2-0.2-0.3c0,0-0.1,0-0.1,0.1c0,0,0,0-0.1,0c0.1-0.2,0.3-0.4,0.4-0.6c-0.1-0.2-0.2-0.4-0.3-0.7
	c0,0.1,0,0.2-0.1,0.3c-0.1,0-0.1-0.1-0.1-0.1c0-0.4-0.1-0.8-0.1-1.2c0,0,0.1-0.1,0.1-0.1c0,0.1,0.1,0.1,0.1,0.2c0,0.1,0,0.2,0,0.3
	c0,0.2-0.1,0.4,0.2,0.5c0.1,0,0.2,0.2,0.2,0.4c0.1,0.3,0.1,0.5,0.1,0.8C45.2,26,45.2,26.2,45,26.4C45.1,26.4,45.1,26.4,45,26.4z"/>
<path d="M14.2,44.6c0.6,0.4,1.2,0.8,1.6,1.5c-0.6-0.2-1.1-0.4-1.6-0.6c0,0,0,0,0-0.1c0.2,0,0.3,0.1,0.5,0.1
	C14.7,45.2,14.1,45.1,14.2,44.6z"/>
<path d="M8.9,26.2c0.2-0.1,0.3,0,0.4,0.1c0.3,0.4,0.3,0.4,0.7,0.6c0,0-0.1,0.1-0.1,0.2c0.4-0.1,0.6,0.1,0.7,0.3c0,0,0,0.1,0,0.2
	c-0.1,0-0.1,0-0.2,0c-0.1,0-0.2,0-0.3,0c-0.1,0-0.2,0-0.3-0.1c-0.2-0.4-0.8-0.6-0.9-1.1C9,26.4,8.9,26.3,8.9,26.2z"/>
<path d="M45.9,27.2c0.1,0.1,0.1,0.1,0.2,0.2c0.2-0.3,0.4-0.6,0.9-0.5c-0.3,0.3,0.1,0.5-0.1,0.8c-0.1-0.1-0.1-0.1-0.2-0.2
	c0,0.1-0.1,0.2-0.1,0.3c-0.1,0-0.3-0.1-0.4-0.1c0,0,0-0.1,0-0.1C45.9,27.6,45.9,27.6,45.9,27.2z"/>
<path d="M11.5,8.8c0.1-0.1,0.2-0.2,0.2-0.3c0.3,0.3,0.2,0.6-0.1,0.7c0,0-0.1,0-0.1,0c-0.1,0-0.3-0.1-0.4-0.1
	c-0.1-0.3-0.1-0.7,0.2-0.9c0.2-0.1,0.3-0.1,0.3,0.1C11.5,8.5,11.4,8.6,11.5,8.8C11.4,8.8,11.4,8.8,11.5,8.8z"/>
<path d="M34.4,7.8C34.3,8,34,8,33.8,7.9c-0.1-0.1-0.2-0.1-0.3-0.1c-0.2-0.1-0.3-0.2-0.3-0.4c0-0.1,0.1-0.2,0.2-0.3
	c0,0,0.2,0,0.2,0.1c0.2,0.1,0.3,0.2,0.5,0.3C34.1,7.5,34.2,7.7,34.4,7.8z"/>
<path d="M10.3,9.5c-0.3,0-0.5,0.1-0.7,0.3c-0.1,0-0.2,0-0.3,0c0.1-0.2,0.2-0.3,0.3-0.4C9.7,9.3,9.8,9.2,10,9.1
	c0.1-0.1,0.3-0.3,0.4-0.2C10.6,9.1,10.4,9.3,10.3,9.5C10.3,9.5,10.3,9.5,10.3,9.5z"/>
<path d="M42.1,27.8c0,0,0.1-0.1,0.1-0.2c0.1,0.1,0.1,0.1,0.2,0.2c0.1,0.1,0.1,0.2,0.2,0.2c0.2,0.1,0.3,0.2,0.2,0.5
	c0,0.1,0,0.2,0.1,0.3c0,0.1,0,0.1,0,0.2c-0.1,0-0.1,0-0.2,0c-0.1,0-0.1-0.1-0.2-0.2c-0.1-0.3-0.2-0.5-0.4-0.8
	C42.1,27.9,42.1,27.9,42.1,27.8z"/>
<path d="M22.9,19.8c0,0.3,0,0.6-0.1,0.8c0,0.1-0.3,0.1-0.5,0.2c0,0-0.1-0.1-0.1-0.1C22.1,20.4,22.4,19.9,22.9,19.8z"/>
<path d="M11.5,13.8c0.1,0.4,0.2,0.7,0.3,1c0,0-0.1,0.1-0.1,0.1c-0.1-0.1-0.1-0.2-0.2-0.3c-0.1,0.1-0.2,0.1-0.3,0.2
	c-0.1-0.1-0.1-0.2-0.1-0.2C11.2,14.3,11.2,13.9,11.5,13.8z"/>
<path d="M44.9,23.6c-0.5-0.2-0.5-0.6-0.4-0.9c0,0,0.1-0.1,0.1-0.1c0,0,0.1,0.1,0.1,0.1C44.7,22.9,44.8,23.2,44.9,23.6z"/>
<circle class="st0" cx="24" cy="24" r="23.5"/>
<circle class="st1" cx="24" cy="24" r="23"/>
</svg>
