<?xml version="1.0" encoding="utf-8"?>
<!-- Generator: Adobe Illustrator 22.0.1, SVG Export Plug-In . SVG Version: 6.00 Build 0)  -->
<svg version="1.1" id="Layer_2" xmlns="http://www.w3.org/2000/svg" xmlns:xlink="http://www.w3.org/1999/xlink" x="0px" y="0px"
	 viewBox="0 0 48 48" style="enable-background:new 0 0 48 48;" xml:space="preserve">
<style type="text/css">
	.st0{fill:none;stroke:#777777;stroke-miterlimit:10;}
	.st1{fill:#777777;}
</style>
<circle class="st0" cx="24" cy="24" r="23.5"/>
<path class="st1" d="M20.9,34.3c0.3,0.3,0.3,1.1,0.9,1.1c0.2,0,0.9-0.3,1-0.5c-0.6-0.2-0.6,0.7-1.3,0.3c-0.4-0.2-0.5-0.7-0.7-1.1
	c-0.1-0.1-0.3-0.4-0.5-0.5c-0.8-0.5-1.2,0-2,0c0.8,0.4,1.1-0.4,1.9,0.1C20.6,33.8,20.8,34.1,20.9,34.3z"/>
<path class="st1" d="M23.3,35.2c0-0.1-0.1-0.2-0.2-0.2c0.1,0.2,0.6,1,0.9,1C23.8,35.8,23.6,35.4,23.3,35.2z"/>
<path class="st1" d="M17.5,26.6c0,0,0,0.2,0.1,0.5C17.8,26.9,17.6,26.7,17.5,26.6z"/>
<path class="st1" d="M17.8,29.7c0.3,0,0.5-0.1,0.5-0.4C18.3,29.2,17.8,29.7,17.8,29.7z"/>
<path class="st1" d="M23.9,19.2c-0.1,0-0.3-0.1-0.4,0.1c0-0.2,0.5,0.7,0.5,0.8C24,19.7,24.2,19.4,23.9,19.2c0.1,0,0.2-0.1,0.2-0.1
	c-0.3-0.1-0.1-0.3-0.2-0.5c0,0.2-0.1,0.3-0.2,0.4C23.7,19,23.8,19.1,23.9,19.2z"/>
<path class="st1" d="M17.4,21.2c0.5,0,1.9,0.8,2.6,0.5C19.1,21.6,18.3,21.4,17.4,21.2z"/>
<path class="st1" d="M24.8,18.4c0,0,0-0.1,0,0.3c-0.6,0-0.5,0.5-0.3,0.8c0.4,0.7,0.8,0.5,0.9,1.3C25.9,20.7,24.9,18.7,24.8,18.4z"/>
<path class="st1" d="M28.3,22.4c-0.2-0.3-1.1-0.3-1.3-0.4c-0.1,0-0.3,0.1-0.5,0c-0.2-0.2,0.3-0.3,0-0.5c-0.5-0.4,0,0-0.4,0.2
	c-0.8,0.3-1.9-0.2-2.7,0.2c0.9,0.1,1.8-0.1,2.6,0C26.8,22.1,27.5,22.3,28.3,22.4z"/>
<path class="st1" d="M20.3,21.7c0,0.1,2.5,0.2,2.8,0.1C22.2,21.8,21.2,21.8,20.3,21.7z"/>
<path class="st1" d="M16.3,32.8c0.8,0.6,1.6,0.9,2,0.7C17.4,33.6,16.9,33,16.3,32.8z"/>
<path class="st1" d="M36.3,17.7c0.1,0.2,0.3,0.3,0.4,0.5C36.8,17.8,36.8,17.5,36.3,17.7z"/>
<path class="st1" d="M29,21.3C29.2,20.5,28.6,20.9,29,21.3z"/>
<path class="st1" d="M35.1,18.6c-0.4,0.2-0.3,0.5-0.2,0.8C35,19.1,35,18.9,35.1,18.6z"/>
<path class="st1" d="M16.1,32.7c-0.4-0.1-0.5-0.6-0.9-0.4C15.5,32.3,15.7,32.7,16.1,32.7z"/>
<path class="st1" d="M23.8,25.1c0-0.2,0-0.5-0.1-0.7c0,0.2-0.2,0.4-0.4,0.5C23.5,25,23.6,25,23.8,25.1z"/>
<path class="st1" d="M27,20.8c0.2,0.4,0.6,0.3,0.6-0.1C27.4,20.9,27.2,20.9,27,20.8z"/>
<path class="st1" d="M20.8,22.7c0-0.2-0.6-0.1-0.5,0.1C20.3,23,20.8,22.7,20.8,22.7z"/>
<path class="st1" d="M29,43.6c-0.1-0.1-0.2-0.2-0.4-0.2C28.4,43.4,29.1,43.6,29,43.6z"/>
<path class="st1" d="M16.2,32.7C16.1,32.8,16.2,32.8,16.2,32.7z"/>
<path class="st1" d="M41,20.1C41,20.1,41,20.1,41,20.1z"/>
<path class="st1" d="M39.7,20.7C39.7,20.7,39.8,20.7,39.7,20.7z"/>
<path class="st1" d="M31.3,41.8c0.5,0-0.3,3-0.3,0.3C31,42.1,31.3,41.8,31.3,41.8z"/>
<path class="st1" d="M38.8,18.1c0.1,0,1-0.4,0.9,0C39.7,18.3,38.9,18.1,38.8,18.1z"/>
<path class="st1" d="M39.6,19.8c0.3,0.5,0.5-0.1,0.9,0C40.3,20.1,39.5,20.5,39.6,19.8z"/>
<path class="st1" d="M37,36.2C37.5,36.7,37.1,36.9,37,36.2z"/>
<path class="st1" d="M31.2,18.5c0.2-0.2,0.2-0.2,0.4,0C31.5,18.5,31.4,18.5,31.2,18.5z"/>
<path class="st1" d="M33.6,39.2C33.6,39.2,33.5,39.2,33.6,39.2z"/>
<path class="st1" d="M36.2,27.5C36.3,27.6,36.2,27.6,36.2,27.5z"/>
<path class="st1" d="M24.8,18.4c0.1,0.3,1.1,2.3,0.6,2.4c-0.1-0.8-0.5-0.6-0.9-1.3c-0.2-0.3-0.3-0.8,0.3-0.8
	C24.8,18.5,24.9,18.4,24.8,18.4z"/>
<path class="st1" d="M28.3,22.4c-0.7-0.1-1.5-0.3-2.2-0.4c-0.9-0.1-1.8,0.1-2.6,0c0.7-0.4,1.8,0.1,2.5-0.2c0.5-0.2,0-0.7,0.5-0.3
	c0.1,0.1-0.2,0.3-0.1,0.4c0.2,0.2,0.3,0,0.5,0.1C27.1,22.1,28.1,22.2,28.3,22.4z"/>
<path class="st1" d="M20.3,21.7c0.9,0,1.9,0.1,2.8,0.1C22.8,21.9,20.3,21.9,20.3,21.7z"/>
<path class="st1" d="M14.1,20.6c1,0.3,2,0.5,3,0.7C16.9,21.2,14,20.7,14.1,20.6z"/>
<path class="st1" d="M17.4,21.2c0.9,0.2,1.8,0.3,2.6,0.5C19.6,21.9,17.8,21.6,17.4,21.2z"/>
<path class="st1" d="M20.3,33.6c-0.4-0.1-0.8,0-1,0c-0.2,0-0.5,0.1-0.8-0.1C18.6,33.6,20.4,33.4,20.3,33.6z"/>
<path class="st1" d="M16.3,32.8c0.7,0.2,1.2,0.8,2,0.7C17.8,33.7,17.1,33.4,16.3,32.8z"/>
<path class="st1" d="M36.3,17.7c0.5-0.3,0.5,0,0.4,0.5C36.6,18.1,36.4,17.9,36.3,17.7z"/>
<path class="st1" d="M23.9,19.2c0.3,0.2,0.1,0.6,0.2,0.9c0-0.2-0.2-0.5-0.2-0.6c0-0.1-0.3,0.1-0.3-0.1
	C23.5,19.1,23.8,19.2,23.9,19.2z"/>
<path class="st1" d="M29,21.3C28.6,20.9,29.2,20.5,29,21.3z"/>
<path class="st1" d="M35.1,18.6c0,0.3-0.1,0.5-0.2,0.8C34.8,19.1,34.7,18.8,35.1,18.6z"/>
<path class="st1" d="M16.1,32.7c-0.4,0-0.6-0.4-0.9-0.4C15.6,32.1,15.7,32.6,16.1,32.7z"/>
<path class="st1" d="M23.9,19.2c-0.1-0.1-0.1-0.2-0.2-0.2c0.1-0.1,0.2-0.2,0.2-0.4c0.1,0.2,0,0.4,0.2,0.5
	C24.1,19.1,23.9,19.2,23.9,19.2z"/>
<path class="st1" d="M23.8,25.1c-0.1-0.1-0.3-0.1-0.4-0.2c0.2-0.1,0.3-0.3,0.4-0.5C23.7,24.6,23.7,24.8,23.8,25.1z"/>
<path class="st1" d="M27,20.8c0.2,0.1,0.4,0.1,0.6-0.1C27.5,21.1,27.2,21.1,27,20.8z"/>
<path class="st1" d="M21,34.3c0.1,0.1,0.4,0.7,0.3,0.8C21.2,35,20.9,34.4,21,34.3z"/>
<path class="st1" d="M17.8,29.7c0.2-0.1,0.3-0.3,0.5-0.4C18.3,29.6,18.1,29.7,17.8,29.7z"/>
<path class="st1" d="M20.8,22.7c0,0-0.5,0.2-0.5,0.1C20.2,22.7,20.8,22.5,20.8,22.7z"/>
<path class="st1" d="M29,43.6c0.1,0-0.6-0.2-0.4-0.2C28.8,43.4,29,43.4,29,43.6z"/>
<path class="st1" d="M13.3,19.8c0-0.1-0.1-0.3-0.1-0.4c0.1,0,0.3,0,0.4,0C13.6,19.5,13.4,19.7,13.3,19.8z"/>
<path class="st1" d="M17.5,26.6c0.1,0.2,0.3,0.3,0.1,0.5C17.6,26.9,17.6,26.7,17.5,26.6z"/>
<path class="st1" d="M23.5,35.5c0.3,0.1,0.4,0.3,0.2,0.4C23.5,35.7,23.4,35.6,23.5,35.5z"/>
<path class="st1" d="M22.2,35.2c0.1-0.3,0.2-0.3,0.3-0.2C22.4,35.2,22.3,35.3,22.2,35.2z"/>
<path class="st1" d="M31.5,43.5c0,0.2-0.1,0.2-0.3,0.3C31.3,43.6,31.4,43.5,31.5,43.5z"/>
<path class="st1" d="M22.1,35.4c-0.1,0.1-0.3,0.1-0.4,0C21.8,35.3,22.1,35.3,22.1,35.4z"/>
<path class="st1" d="M23.5,35.5c-0.2-0.1-0.3-0.2-0.2-0.3C23.6,35.3,23.6,35.4,23.5,35.5z"/>
<path class="st1" d="M23.3,35.2c0-0.1-0.1-0.1-0.1-0.2C23.3,35,23.4,35.2,23.3,35.2z"/>
<path class="st1" d="M24.1,36.4c-0.1-0.1-0.1-0.2-0.2-0.2C24.1,36.1,24.2,36.3,24.1,36.4z"/>
<path class="st1" d="M23.8,35.8c0.1,0.1,0.1,0.2,0.2,0.2C23.9,36.1,23.7,35.9,23.8,35.8z"/>
<path class="st1" d="M21.6,35.2c-0.1,0-0.1-0.1-0.2-0.1C21.4,35,21.6,35.1,21.6,35.2z"/>
<path class="st1" d="M21.7,35.3c-0.1,0-0.1-0.1-0.2-0.1C21.6,35.1,21.8,35.3,21.7,35.3z"/>
<path class="st1" d="M22.5,34.9c0.1-0.1,0.2-0.1,0.3,0C22.8,35,22.6,35,22.5,34.9z"/>
<path class="st1" d="M31.3,43.7c0,0.1-0.1,0.1-0.1,0.1C31.1,43.7,31.1,43.7,31.3,43.7z"/>
<path class="st1" d="M30.6,44.6C30.5,44.7,30.5,44.6,30.6,44.6z"/>
<path class="st1" d="M12.8,17.8C13,17.7,13,18,12.8,17.8z"/>
<path class="st1" d="M17.4,21.3C17.3,21.2,17.3,21.2,17.4,21.3z"/>
<path class="st1" d="M30.7,44.5c0.1-0.1,0.1-0.1,0.1-0.1C30.8,44.6,30.7,44.6,30.7,44.5z"/>
<path class="st1" d="M22.3,35.2c-0.1,0.1-0.1,0.1-0.1,0.1C22.2,35.1,22.2,35.1,22.3,35.2z"/>
<path class="st1" d="M17.8,29.7C17.8,29.7,17.8,29.7,17.8,29.7C17.8,29.7,17.8,29.7,17.8,29.7z"/>
<path class="st1" d="M16.2,32.7C16.2,32.8,16.1,32.8,16.2,32.7z"/>
<path class="st1" d="M20.3,33.6C20.5,33.7,20.2,33.7,20.3,33.6z"/>
<path class="st1" d="M20.4,33.7C20.3,33.6,20.5,33.6,20.4,33.7z"/>
<path class="st1" d="M20.5,33.7C20.6,33.8,20.3,33.8,20.5,33.7z"/>
<path class="st1" d="M20.5,33.9C20.4,33.7,20.6,33.8,20.5,33.9z"/>
<path class="st1" d="M20.6,33.9C20.5,33.8,20.7,33.8,20.6,33.9z"/>
<path class="st1" d="M20.7,34C20.5,33.9,20.8,33.9,20.7,34z"/>
<path class="st1" d="M20.7,34C20.9,34.1,20.6,34.1,20.7,34z"/>
<path class="st1" d="M20.8,34.1C20.6,34,20.9,34,20.8,34.1z"/>
<path class="st1" d="M20.8,34.1C21,34.2,20.7,34.2,20.8,34.1z"/>
<path class="st1" d="M20.9,34.3C20.8,34.1,21,34.2,20.9,34.3z"/>
<path class="st1" d="M22.2,35.3C22,35.5,22.1,35.2,22.2,35.3z"/>
<path class="st1" d="M31.3,41.8C31.4,41.8,31.3,41.9,31.3,41.8C31.3,41.8,31.3,41.8,31.3,41.8z"/>
<path class="st1" d="M31.3,41.8C31.3,41.9,31.3,41.9,31.3,41.8C31.2,41.9,31.2,41.8,31.3,41.8z"/>
<path class="st1" d="M31.2,41.9C31.2,42,31.2,42,31.2,41.9C31.1,41.9,31.2,41.9,31.2,41.9z"/>
<path class="st1" d="M31.1,42C31.2,42,31.1,42.1,31.1,42C31.1,42,31.1,42,31.1,42z"/>
<path class="st1" d="M31.1,42C31.1,42.1,31.1,42.1,31.1,42C31,42.1,31,42,31.1,42z"/>
<path class="st1" d="M24.8,18.4C24.7,18.4,24.8,18.4,24.8,18.4z"/>
<path class="st1" d="M13,19.2C13,19.3,13,19.2,13,19.2z"/>
<path class="st1" d="M21,34.2C21.1,34.4,20.9,34.3,21,34.2z"/>
<path class="st1" d="M41,20.1C41,20.1,41,20.1,41,20.1z"/>
<path class="st1" d="M39.7,20.7C39.8,20.7,39.7,20.7,39.7,20.7z"/>
<path class="st1" d="M13.8,21.3C13.7,21.4,13.7,21.3,13.8,21.3z"/>
<path class="st1" d="M27.7,23.2C27.7,23.3,27.7,23.2,27.7,23.2z"/>
<path class="st1" d="M31.8,24.7C31.8,24.8,31.8,24.7,31.8,24.7z"/>
<path class="st1" d="M17.5,26.6C17.5,26.5,17.5,26.6,17.5,26.6z"/>
<path class="st1" d="M30.7,44.6C30.5,44.7,30.6,44.4,30.7,44.6z"/>
<path class="st1" d="M33,44.2c-0.3,0.2-0.2,0.5-0.6,0.7C32.5,44.8,32.8,44,33,44.2z"/>
<path class="st1" d="M33,44.2c0.1-0.1,0.4-0.1,0.5-0.1C33.4,44.3,33,44.3,33,44.2z"/>
<path class="st1" d="M41.1,17.8C41,17.8,41.2,17.8,41.1,17.8z"/>
<path class="st1" d="M31.9,23.3c0,0,0.4-0.2,0.5,0C32.4,23.5,31.9,23.4,31.9,23.3z"/>
<path class="st1" d="M32.9,23.9C32.8,23.8,32.9,23.8,32.9,23.9z"/>
<path class="st1" d="M24,35.4c0.2,0,0.5,0.7,0.8,1C24.4,36.2,24.1,35.9,24,35.4z"/>
<path class="st1" d="M30.8,42.7c-0.3,0.4,0,0.4,0.3,0.5c-0.3,0-0.7,0.2-0.9,0.3C30.2,43.5,30.8,42.8,30.8,42.7z"/>
<path class="st1" d="M29.1,42.4c0.1-0.1,0.6-0.1,0.7-0.2c0.2-0.3-0.3-0.3-0.5-0.5c0.2-0.1,0.2-0.3,0.3-0.3c-0.1,0.3,0.3,0.9,0.3,0.9
	c-0.1,0.2-0.8,0.2-1,0.5C29,42.6,29,42.5,29.1,42.4z"/>
<path class="st1" d="M36.7,22c-0.2,0.3-0.4,0.3-0.7,0.5c-0.1,0-0.2,0.1-0.2,0.1C36.1,22.4,36.5,22.2,36.7,22c0-0.2,0-0.4,0.1-0.6
	C36.8,21.6,36.8,21.8,36.7,22z"/>
<path class="st1" d="M40.1,20.2c-0.5-0.1-0.7,0.5-1.4,0.1c-0.3-0.2-0.4-0.2-0.4-0.6c-0.2,0.2-0.3,0.2-0.5,0c0.7-0.3,0.4-0.9-0.2-0.7
	c-0.6,0.1-0.9,1.2-1.1,1.7c-0.3-0.5,0.1-0.8,0.3-1.2c0.1-0.3,0.1-0.8,0.3-1c0.5-0.6,1.8-0.6,2.2-1.3c0-0.2,0-0.5,0.1-0.7
	c0.2-0.1,0.3-0.2,0.3-0.4c0.1-0.4,0-0.4-0.1-0.6c-0.2-0.6-0.3-0.5-0.7-0.4c-0.1-0.3-0.4-0.2-0.6-0.1c0,0,0,0,0,0c0,0,0,0,0.1,0
	c0,0,0,0-0.1,0c0-0.1,0.1-0.2,0.1-0.3c-0.3,0-0.8,0-1.1,0.2c-0.1-0.5-0.4-0.1-0.6-0.4c-0.1-0.2-1.9-2-2.2-1.8c0.2-0.1,0,1.7-0.1,1.6
	c-0.1,0-0.2-0.1-0.3-0.1c0,0.1,0,0.2-0.1,0.2c-0.1-0.3-0.3-0.2-0.5-0.4c-0.2-0.2-0.3-0.7-0.5-0.9c-0.1-0.1-0.5,0-0.6,0
	c-0.2-0.1-0.3-0.3-0.6-0.3c-0.3-0.1-0.9-0.2-1.2,0c-0.5,0.3,0.3,1.1,0.4,1.6c0.1,0.6,0,0.5,0.2,1c0.2,0.2,0.8,1,1,1.1
	c-0.2,0.1-0.9,0.9-0.9,1.2c0,0.2,0.3,0.5,0.5,0.7c0.3,0.4,0.4,0.8,0.1,1.3c-0.3,0.5-0.1,0.2-0.5,0c-0.5-0.2-0.8-0.7-1-1.2
	c-0.4-0.8,0.1-0.6-0.8-0.7c-0.7-0.1-1.1-0.3-1.8-0.6c-0.3-0.1-0.5-0.3-0.8-0.3c-0.2,0-0.4,0.2-0.7,0.2c0.2-0.6-0.3-0.8-0.5-1
	c-0.1-0.1-0.2,0-0.3-0.2c-0.1-0.1-0.1-0.6-0.1-0.8c0.1-0.5,1.1-1.8,0.8-2.1c0.9-0.7,1.4-1-0.1-1.5c0.2-0.1,1.7,0.5,1.1-0.5
	c0.2,0,0.4,0.1,0.6,0.1c-0.1-0.1-0.3-0.2-0.4-0.4c0.2-0.2,0.3,0,0.5,0.2c0.3-0.8,0.2-0.7-0.1-1.2c-0.1-0.3-0.2-1-0.9-0.6
	c0.2,0.3,0.4,1.2,0,1.5c-0.3,0.2-0.3-1-0.8-1c0,0.2-0.1,0.4-0.1,0.6c-0.1-0.2-0.2-0.4-0.3-0.7C25.9,9,25.6,9.1,25.6,9
	c-0.1-0.1,0.2-0.2,0.1-0.4c-0.2-0.3-0.4-0.5-0.6-0.8c-0.3,0.2-0.4,0.7-0.3,1.1c0.1,0.3,0.4,0.1,0.5,0.3c0,0.1,0.1,0.5,0.1,0.5
	c0-0.1-0.4,0.9-0.3,0.8c-0.4,0-0.3-0.5-0.3-0.7c-0.1-0.2,0.3,0,0.1-0.4c-0.1-0.1-0.3-0.3-0.5-0.4c-0.3,0.9-0.1,0.2,0.2,0.7
	c-0.5,0.4-0.6,0.7-1.4,0.3c-0.4-0.2-1-0.9-1.3-0.3c0.2,0.1,0.3,0.7,0.1,0.8c-0.3,0.3-0.1-0.3-0.1-0.3c-0.2-0.1-0.2-0.3-0.3-0.4
	c-0.2-0.1-0.6,0.1-0.9,0c-0.6-0.2-0.2-0.1,0-0.4c-0.1-0.3-0.9-0.8-1.2-1c-0.7-0.3-0.7,0.1-0.8-0.5c-0.9,0.8,0-0.2-0.5-0.3
	c-0.3,0-0.5,0.1-0.8,0.1c0.1-0.1,0.1-0.2,0.2-0.3c-0.2,0-0.9,0-0.9,0c-0.1,0-0.4-0.3-0.5,0.3c-0.1-0.2-0.4-1-0.8-0.9c0,0,0,0,0,0
	c0,0,0,0,0,0c0,0,0,0,0,0c0,0,0,0,0,0c0.4-0.1-0.3-0.9-0.4-1c-0.4-0.4-0.5-0.7-0.8-1.1c-0.3-0.6,0-0.5-0.8-0.7
	c-0.5-0.1-0.9-0.1-1.4-0.1c-0.7,0-0.4-0.2-0.7,0.4c-0.1,0.3-0.1,0.8-0.4,1c-0.3,0.1-0.3-0.4-0.7-0.6C9.9,5.2,9.7,5.4,9.4,5.6
	C9.5,6,10,6,10.1,6.3c0.1,0.5-1,0.3-1.1,0.3c-0.2,0-0.1-0.2-0.3-0.2c-0.1,0-0.2,0-0.3,0.1C8,6.8,7.7,7.1,7.4,7.4c0,0.1,0,0.1,0,0.1
	c0,0.3,0.4,1-0.4,1.1c0.4,0.4,0.4,0,0.3,0.7c0.1,0,0.2-0.1,0.3-0.1c0.1,0.2,0,0.2,0.3,0.3C7.5,9.6,7.3,10,7,10.1
	c-0.4,0.1-0.8-0.3-1.2,0.2c0,0-0.7-0.6-0.6-0.2c0.1,0.6,2.6,0.5,2.9,0.4c0.5-0.2,0.2-0.3,0.5-0.5c0.2-0.1,1.6-0.4,1.7-0.2
	c0.1,0.2-0.4,0.1-0.5,0.1C9.7,9.9,9.5,9.9,9.3,10c-0.1,0.1,0,0.3-0.2,0.4c0.3,0.1,0.6,0.1,0.8,0c0,0,0.6-0.2,0.4-0.2
	c0.3,0,0.2-0.2,0.5,0.2c0.2,0.2,0.1,0.5,0.2,0.7c0.2,0.2,0.3,0.2,0.5,0.4c0.1,0.1,0.6,0.5,0.6,0.6c-0.1,0.1-0.2,0.1-0.3,0.1
	c-0.2,0.2,0.4,1.3,0.3,1.6c0.2,0,0.3,0,0.4-0.1c-0.1,0.2-0.1,0.4-0.2,0.6c0.3,0,0.3-0.6,0.6-0.3c0-0.5,0.2-1.4-0.5-1.2c0,0,0,0,0,0
	c-0.3,0-0.3-0.2-0.2-0.4c0.1,0.2,0.2,0.4,0.2,0.4c0.8-0.6,0.6,1.5,0.7,2.1c-0.1-0.4-0.2-0.8-0.2-0.8c-0.1,0-0.5,0.7-0.5,0.8
	c0.1,0,0.2-0.1,0.3-0.2c0.2,0.4-0.1,0.6,0,0.9c0,0.2,0.2,0.3,0.1,0.6c0.3-0.2,0.5-0.4,0.4-0.8c0,0,0,0,0,0c0.2,0.3-0.1,0.5-0.2,0.8
	c0,0.1-0.3,0.1-0.3,0.2c0,0.1,0.2,0.2,0.2,0.3c0,0.3,0,0.2,0,0.5c0,0.2,0.1,0.8,0.1,0.9c0.1,0,0.1,0,0.2,0c0,0-0.3,0.6-0.3,0.7
	c0-0.1,0.4,0.7,0.3,0.6c-0.2,0-0.5-0.5-0.7-0.1c0,0.1,0.5,1.1,0.8,1c-0.2,0.4,0.2,0.5,0.5,0.6c-0.1-0.4-0.3-0.9-0.4-1.3
	c0.1,0,0.3,0,0.4,0c-0.1,0.1-0.1,0.2-0.2,0.3c0.1,0.1,0.3,0.1,0.4,0c-0.2,0.4,0,0.7,0.4,0.9c-0.1,0-0.2,0-0.3,0c0,0.1,0,0.8-0.1,0.8
	c0-0.1-0.1-0.2-0.1-0.1c-0.1,0-0.1-0.5-0.6-0.6c-0.1,1-0.2,1.5-0.6,2.4c-0.3,0.7-0.4,1.3-0.5,2c-0.1,0.6-0.5,1.3-0.2,2
	c0.1,0.3,0.4,0.2,0.5,0.5c0,0-0.1,0.4-0.1,0.5c0,0.3,0.4,1.6,0.6,1.8c0.2,0.3,0.7,0.3,1,0.6c0.3,0.3,0.4,0.7,0.5,1.1
	c0.2,0.9,0.6,1.5,0.9,2.3c0.3,0.7,0.2,0.6-0.3,0.8c0.3,0.1,0.3,0.3,0.5,0.5c0.1,0.1,0.4,0,0.5,0.1c0.5,0.4,0.3,0.7,0.5,1.2
	c0.1,0.2,1.2,1.7,1.4,1.3c0.2-0.4-0.4-0.6-0.6-0.8c-0.3-0.5-0.3-1.2-0.6-1.8c-0.6-1.1-1.2-1.9-1.2-3.2c1.1,0.5,0.8,1.1,1.2,2
	c0.3,0.6,1,1,1.3,1.6c0.3,0.6,0.4,0.7,0.9,1.1c0.4,0.4,1.4,1.6,1.5,2.2c0.2,1-0.5,0.6,0.3,1.4c0.6,0.6,1.3,0.9,2.1,1.2
	c0.8,0.3,1.8,0.8,2.7,0.9c0.5,0.1,0.9-0.2,1.4-0.2c0.4,0,1.2,0.7,1.5,0.6c0.1,0,0.1-0.1,0.1-0.2c0,0.1,0,0.2,0.1,0.3
	c0.2,0.3,2.6,0.6,2.5,0.1c0.3,0.1,0.6,0.3,0.2,0.4c0.6,0.6,1.5,0.9,2.4,0.7c-0.1,0.2-1.2-0.1-1.3,0.1c-0.1,0.6,0.5,0.4,0.8,0.5
	c0.1,0,0.2,0.1,0.2,0.1c0.2-0.1,0.5-0.2,0.7-0.4c-0.1-0.2-0.4-0.3-0.5-0.6c-0.2-0.4,0.5-1.8,0.1-2c-0.3-0.2-1.2,0.6-1.4,0.8
	c-0.1,0.1-0.2,0-0.2,0c0.1,0,0.1-0.1,0.2-0.1c0,0,0.1,0,0.1-0.1c0,0,0,0-0.1,0.1c0.1,0.1,0.2-0.1,0.2-0.2c0.4-0.3,1.1-0.8,1.1-0.7
	c-0.2-0.8-2.7,0.1-3.1,0.3c0,0-0.3,0.4-0.4,0.4c0.1,0-0.1-0.2,0.1-0.1c0,0,0.2-0.2,0.2-0.2c0-0.3-0.4,0-0.4-0.1
	c0-0.1-0.1-0.5-0.1-0.6c0,0-0.3-0.4-0.4-0.5c0.4-0.2,0.5-0.2,0.4-0.1c0.2-0.2,0.5-0.7,0.7-0.3c0-0.1,0.4-1.9,0.4-1.9
	c-0.3-0.4-1.7,0.3-2,0.6c-0.3,0.4-0.1,1-0.7,1.4c-0.2,0.1-1.5,0.4-1.7,0.4c-0.2,0-0.9-0.3-1-0.4c-1.3-1.1-1.1-2.5-1.1-3.9
	c0-0.5,0.2-0.2-0.3-0.4c0.1,0,0.3,0,0.4-0.1c0.2-0.2-0.1-0.9,0.3-1.3c0.2-0.2,0.6-0.3,0.9-0.5c0.4-0.2,0.4-0.4,1-0.4
	c0.3,0,0.7-0.1,1-0.1c0.1,0,0.4,0.2,0.6,0.2c0.1,0,0.3-0.2,0.3-0.2c0,0,0.5,0.2,0.5,0.2c0.3-0.2-0.4-0.2-0.1-0.6
	c-0.2,0-0.3,0-0.5-0.1c0.4-0.3,0.9,0,1.2-0.5c0.2,0.1,0.4,0,0.7,0c0.1,0,0.7,0.2,0.7,0.2c0.5,0,0.8-0.5,1.4,0.2
	c0.3,0.4,0.2,0.8,0.4,1.2c0.2,0.3,1,0.6,1,1.1c1.3-0.7-0.7-2.7-0.8-3.5c-0.1-0.6,0.5-1.2,0.8-1.7c0.1-0.2,1.2-1.4,1.2-1.4
	c-0.2-0.4,0.2-0.3,0.2-0.5c0-0.5-0.3-0.1-0.3-0.3c0.3-0.4,0.2-0.3,0-0.4c-0.1,0-0.3,0-0.4,0c-0.3,0-0.5-0.1-0.8-0.1
	c0,1.2-0.8,2.3-2.3,2.3c-1.7,0-2.5-1.5-2.2-2.8c-0.2,0-0.3,0.1-0.5,0.1c-2.8,0-3-4-0.7-4.6c-0.1,0-0.1-0.1-0.1-0.2
	c-0.2,0.1-1.4,0.7-1.4,0.4c0.1,0,1.3-1.5,1.5-1.6c0.6-0.2,1.2,0.5,1.6,0.8c0.4,0.3,0.3,0.5,0.9,0.5c0.4,0,1.4-0.1,1.5,0.6
	c0.1,0.6-0.4,0.1-0.6,0.3c-0.2,0.3-0.3,1.5-0.4,1.9c0.1-0.2,1.1-0.6,1.4-0.9c0-0.1,0.1-0.1,0.1-0.2c-0.1-0.1-0.1-0.1-0.2-0.1
	c0-0.3,1.1-1,1.4-1.3c0.1-0.1,0.2-0.2,0.3-0.2c-0.2,0.2-0.2,0.4-0.3,0.6c0.2-0.1,0.4-0.1,0.7-0.1c0.8,0,1.4,0.4,1.8,0.9
	c0.2-0.1,0.3-0.2,0.4-0.3c-0.4,0.3-0.5-0.5-0.5-0.7c0-0.4,0.2-0.4,0.3-0.7c0.1-0.1,0.4-0.5,0.4-0.5c0.3-0.6,0.2-0.5-0.4-1.1
	c-0.3-0.3-0.3-0.8-0.8-0.2c0,0,0,0.1,0,0.1c0.1-0.4,0.2-0.7,0.7-0.3c0.2,0.2,0.2,0.7,0.5,0.8c0.5,0.1,0.5-0.3,0.8-0.6
	c0.3,0.3-0.5,1.2,0.1,1.4c0.4,0.1,0.3-0.5,0.4-0.7c0.4-0.9,1.3-1,0.7-2.2C40.1,19.6,39.9,19.9,40.1,20.2z"/>
<path class="st1" d="M13.6,9.3c0,0,0.1-0.1,0.1-0.1c0,0,0,0,0,0C13.7,9.3,13.6,9.3,13.6,9.3z"/>
<path class="st1" d="M14,8.9C14,8.9,14,8.9,14,8.9C14,8.9,14,8.9,14,8.9C14,8.9,14,8.9,14,8.9z"/>
<path class="st1" d="M14.3,8.5C14.3,8.5,14.3,8.5,14.3,8.5c0.1-0.1,0.2-0.1,0.2-0.2c0,0,0,0,0,0c0,0,0,0,0,0c0,0,0,0,0,0
	c0,0,0,0,0,0c0.1-0.1,0.2-0.1,0.2-0.2C14.7,8,14.5,8.4,14.3,8.5C14.3,8.5,14.3,8.5,14.3,8.5z"/>
<path class="st1" d="M14.5,8.2c0-0.1,0-0.1,0-0.1C14.5,8.1,14.5,8.1,14.5,8.2z"/>
<path class="st1" d="M14.7,8c0.1-0.1,0.1-0.1,0.2-0.2C14.9,7.8,14.8,7.9,14.7,8L14.7,8z"/>
<path class="st1" d="M15.3,7.3c0,0-0.1,0.1-0.1,0.1c0,0,0,0,0,0C15.2,7.3,15.3,7.3,15.3,7.3z"/>
<path class="st1" d="M15.3,7.1c-0.1,0.1-0.2,0.1-0.2,0.2c0,0,0,0,0,0c0,0,0,0,0,0c0,0,0,0,0,0c0,0,0,0,0,0c0,0,0,0,0,0
	C15.2,7.2,15.3,7.1,15.3,7.1C15.3,7.1,15.3,7.1,15.3,7.1z"/>
<path class="st1" d="M14.5,8.2C14.5,8.2,14.5,8.2,14.5,8.2c-0.1,0-0.1,0-0.1,0.1C14.4,8.3,14.5,8.2,14.5,8.2z"/>
<path class="st1" d="M14.2,8.6C14.2,8.6,14.2,8.6,14.2,8.6c-0.1,0.1-0.1,0.1-0.1,0.1C14.1,8.7,14.1,8.6,14.2,8.6z"/>
<path class="st1" d="M13.8,9.1C13.7,9.2,13.7,9.2,13.8,9.1C13.7,9.2,13.8,9.1,13.8,9.1z"/>
<path class="st1" d="M13.6,9.3c0,0,0,0.1-0.1,0.1c0,0,0,0,0,0c-0.1,0-0.1,0.1-0.1,0.2C13.5,9.5,13.5,9.4,13.6,9.3z"/>
<path class="st1" d="M12.7,10.6C12.7,10.6,12.7,10.6,12.7,10.6c-0.1,0-0.1,0-0.1,0.1C12.6,10.6,12.7,10.6,12.7,10.6z"/>
<path class="st1" d="M12.8,10.4c0,0,0,0.1,0,0.1C12.7,10.5,12.7,10.5,12.8,10.4z"/>
<path class="st1" d="M12.4,11C12.3,11,12.3,11,12.4,11c-0.1,0.1-0.2,0.1-0.2,0.2c0,0,0,0,0,0c0,0,0,0,0,0
	C12.2,11.2,12.3,11.1,12.4,11C12.4,11,12.4,11,12.4,11z"/>
<path class="st1" d="M12.1,11.4C12.1,11.4,12.1,11.4,12.1,11.4C12.1,11.4,12.1,11.4,12.1,11.4z"/>
<path class="st1" d="M12.1,11.4c0,0,0,0.2,0.1,0.3C12.1,11.7,12,11.6,12.1,11.4z"/>
<path class="st1" d="M12.6,10.7C12.6,10.7,12.6,10.8,12.6,10.7C12.6,10.8,12.6,10.7,12.6,10.7z"/>
<path class="st1" d="M11.9,11.6C11.9,11.6,11.9,11.6,11.9,11.6C11.9,11.6,11.9,11.6,11.9,11.6C11.9,11.6,11.9,11.6,11.9,11.6z"/>
<path class="st1" d="M12.5,12.8C12.5,12.8,12.6,12.8,12.5,12.8C12.6,12.8,12.5,12.8,12.5,12.8z"/>
<path class="st1" d="M12.5,12.9c-0.1,0-0.1,0-0.2,0c0,0-0.1-0.1-0.1-0.1c0,0.1,0,0.1,0.1,0.1C12.3,12.9,12.4,12.9,12.5,12.9z"/>
<path class="st1" d="M12.3,12.2c0-0.1-0.1-0.3-0.2-0.4c0.1,0.1,0.2,0.1,0.2,0.2C12.3,12,12.3,12.1,12.3,12.2
	C12.3,12.1,12.3,12.2,12.3,12.2z"/>
<path class="st1" d="M12.5,10.9C12.5,10.9,12.5,10.9,12.5,10.9C12.5,10.8,12.5,10.8,12.5,10.9c0.1-0.2,0.2-0.2,0.2-0.3c0,0,0,0,0,0
	c0,0,0,0,0,0c0,0,0,0,0,0c0,0,0,0,0,0c0.1-0.1,0.2-0.1,0.2-0.2C12.9,10.4,12.7,10.7,12.5,10.9z"/>
<path class="st1" d="M13.4,15.2C13.4,15.2,13.4,15.2,13.4,15.2C13.4,15.2,13.4,15.2,13.4,15.2C13.4,15.2,13.4,15.2,13.4,15.2z"/>
<path class="st1" d="M13.4,9.7C13.4,9.7,13.4,9.7,13.4,9.7c0.1,0,0.1,0,0.1-0.1C13.5,9.7,13.4,9.7,13.4,9.7z"/>
<path class="st1" d="M13.7,9.3C13.7,9.3,13.7,9.3,13.7,9.3C13.7,9.3,13.7,9.3,13.7,9.3C13.7,9.3,13.7,9.3,13.7,9.3
	C13.7,9.3,13.7,9.3,13.7,9.3C13.7,9.3,13.7,9.3,13.7,9.3c0.1-0.1,0.2-0.2,0.2-0.3c0,0,0,0,0,0c0,0,0,0,0,0
	C13.9,9.1,13.8,9.2,13.7,9.3z"/>
<path class="st1" d="M17.3,21.2c0.1,0,0.1,0,0.2,0C17.4,21.3,17.4,21.2,17.3,21.2z"/>
<path class="st1" d="M32.3,43.3c-0.1,0.2-0.1,0.3-0.3,0.4C32.1,43.5,32.2,43.4,32.3,43.3z"/>
<path class="st1" d="M27.6,0.9C27.8,1,27.9,1.1,28,1.3c-0.7-0.6-0.7,1-0.5,1.3c0,0.1,0.3-0.2,0.4,0.2c0.1,0.3-0.3,0.3-0.3,0.6
	c0,1,0.6,0.1,0.9,0.4c0.1,0.2-0.3,0.4-0.4,0.4c0.4,0.3,0.4,0.3,0.9,0.2c0.3-0.1,0.4-0.3,0.8-0.3c0.3,0,0.8,0.2,1.1,0.4
	c0.4,0.2,1,1,1.4,1.1c0.2,0.1,0.2-0.3,0.3-0.3c0.3,0.1,0.6,0.3,0.9,0.3c-0.2,0.1-0.5,0-0.6,0.3c0.1,0,0.2,0,0.3,0.1
	c-0.4,0.2,0.1,0.4,0.3,0.4c0.5,0,0-0.3,0-0.4c0-0.6,0.5,0.1,0.6,0.1c0.4,0.3,0.2,0.5,0.3,0.7c0-0.1,0,0.3,0,0.4
	c-0.1-0.2,0.3,0.1,0.3,0.1c0,0,0,0,0,0c0,0,0,0-0.1,0c0,0.1,0.1,0,0.1,0c0,0-0.1,0.1-0.1,0.1c0-0.2,0.4,0.3,0.4,0.3
	c0.1,0,0-0.6,0.2-0.5c0.2,0-0.3,0.8,0,0.6c0,0,0.1,0,0.1,0c0,0.1,0,0.2,0.1,0.2c0.3,0.1,0.1-0.4,0.4-0.3c-0.1,0.4,0.1,0.6,0.4,0.8
	c0.1-0.2,0.1-0.3,0-0.4c0,0,0,0,0,0c0.1-0.1,0-0.1,0,0c0,0,0,0,0,0C36,8,36.2,8.3,36.2,8.3c-0.1,0.2,0,0.3,0.1,0.4
	c0.2,0.1,0.4,0.2,0.6,0.2c0.5,0.2,1.3,0.9,1.7,0.1c0.2,0.3,0.5,0.3,0.8,0c-0.5-0.6-1.1-1.6-1.6-2.3c-0.2-0.4-0.3-0.5-0.4-1
	c0-0.4-0.1-0.9-0.3-1.3c-2.6-1.8-5.7-3-8.9-3.6C28,0.9,27.8,0.9,27.6,0.9z M34.4,6.9C34.5,6.9,34.5,6.9,34.4,6.9
	C34.4,7,34.4,7,34.4,6.9C34.4,6.9,34.4,6.9,34.4,6.9z"/>
<path class="st1" d="M33.7,0.7C33.8,0.7,33.7,0.5,33.7,0.7L33.7,0.7z"/>
<path class="st1" d="M33.7,11.1c-0.1-0.4-0.2-0.6-0.6-0.9c-0.3-0.2-0.3,0-0.5-0.1c-0.7-0.3-0.4-0.5-0.7-0.8C32,9,33,9.6,33.2,9.8
	c-0.1-0.2,0-0.7-0.1-0.9c-0.2-0.3-0.2-0.1-0.3-0.2c-0.1-0.1-2.5-0.5-1.7-0.8c-0.1-0.2-0.2,0.1-0.4,0c0,0,0.1-0.8-0.3-0.3
	c-0.4-0.4-0.2,0.1-0.6,0c0,0-0.2-0.3-0.2-0.3c-0.5-0.2-0.1,0-0.4,0.2c-0.2-0.5-0.1-0.1-0.2,0c-0.1-0.1-0.1-0.2-0.1-0.3
	c-0.1,0-0.2,0.1-0.3,0.1c-0.2-0.2-0.1-0.4-0.4-0.6c-0.1-0.1-1-0.4-0.7,0.1c0.1,0-0.7-0.2-0.7,0.1c0,0,0,0.9,0,0.8
	c0,0,0.7,0.5,0.2,0.5c-0.5,0-0.1-1.4-0.5-1.4c-0.3,0-0.6,0.9-0.4,1.2C26.1,8,26.4,8,26.8,8c-0.2,0.1-0.4,0.1-0.6,0.2
	c0.5,0.8,1.7,0.3,2.3,0.2c-0.1-0.1-0.3-0.2-0.1-0.3c0.1-0.1,1,0.5,1,0.7c0.3-0.3,1,0.2,1.2,0.5c0.1,0.3,0,0.5,0,0.8
	c0,0.2,0.2,0.2,0.3,0.4c-0.2,0.1-1.3,0.3-0.9,0.8c0.2,0.2,1,0.1,0.9-0.3c0,0,0,0,0,0c0,0,0,0,0,0.1c0,0,0,0,0-0.1
	c0.3,0.1,0.7,0.3,1,0.4c0,0,0,0.2,0.2,0.2c0.5,0.1,1.1,0,1.6,0c-0.2-0.1-1.1-0.4-0.9-0.7c0,0,0,0,0,0c0,0,0,0,0,0c0,0,0,0,0,0
	C32.9,10.9,33.7,11.1,33.7,11.1z M28.1,6.9C28.1,6.9,28.1,6.9,28.1,6.9C28.1,6.9,28.1,6.9,28.1,6.9z M28.1,6.8
	C28.1,6.8,28.1,6.8,28.1,6.8C28.1,6.8,28.1,6.8,28.1,6.8C28.1,6.8,28.1,6.8,28.1,6.8C28.1,6.7,28.1,6.7,28.1,6.8
	C28.1,6.8,28.1,6.8,28.1,6.8z M27.8,6.7c-0.1,0.1-0.1,0.4-0.1,0.5C27.5,6.9,27.6,6.7,27.8,6.7z"/>
<path class="st1" d="M20.3,7.1c0.1,0.1-0.1,0.3,0,0.4c0.1,0.1,0.3,0.2,0.4,0.3c-1.3,0.3,0.4,0.4,0.7,0.8c-0.6,0-1.3-0.3-1.1,0.4
	c0,0.1,0.6,0.6,0.7,0.6c0.6,0.2,0.8-0.3,1.3-0.3c0.1,0,0.2,0.1,0.3,0.1c0.2,0,0.4,0.2,0.7,0.1c0.2,0,0.3-0.4-0.1-0.1
	C23,8.9,23.7,9.2,23.7,9c0.1-0.3-0.5-0.4-0.7-0.6c-0.2-0.4,0.1-1,0-1.3c-0.3-0.6-0.6,0.2-0.7,0.7c-0.1-0.1-0.2-0.7-0.4-0.6
	c0,0-0.1,0.5-0.3,0.3c-0.1-0.1,0.1-0.2,0-0.3c-0.3-0.2-0.2,0.1-0.5,0.1c0-0.1,0-0.2,0-0.3c-0.2,0.1-0.3,0.1-0.5,0.2
	c0-0.1-0.1-0.1-0.2,0c0.2-0.5,0.9,0,0.3-0.7C20.6,5.8,20,5.9,19.7,6c-0.4,0.2-0.7,0.8-0.6,1.2C19.4,8,19.7,7.3,20.3,7.1z"/>
<path class="st1" d="M25.7,4.5C25.7,4.5,25.7,4.5,25.7,4.5C25.7,4.5,25.7,4.5,25.7,4.5z"/>
<path class="st1" d="M24.9,3.7c-0.1,0.1,0.1,0.5,0.2,0.5c0.4,0.2,0.3-0.4,0.5-0.3c0.1,0,0.6,0.4,0.7,0.4c0.3,0.1-0.4,0.3-0.5,0.2
	c0.1,0.3-0.2,0.4-0.2,0.6c0,0.1,1.4-0.1,1.4-0.1c0.8-0.6-0.4-0.2-0.4-0.7c0.7,0.1,0.7-0.8,0.1-0.8c0.5-0.3,0.1,0,0-0.2
	c0.6,0,0.4-1,0.6-1.3c-0.1,0-0.2,0.1-0.3,0.1c0.7-1.5-1.7-0.6-1.3,0c-0.2-0.1-0.8,0.1-0.8,0.4c0,0.2,0.2,0.1,0.3,0.2
	c0.3,0.4,0.7,0,0.7,0.4c0,0,0,0,0,0c-0.1,0-0.4,0-0.4,0c0.8,0.7,0.8,0.5,0.2,0.8c0.2-0.4-0.8-1.3-1.1-1.1
	C24.1,3.1,24.6,3.7,24.9,3.7z"/>
<path class="st1" d="M42.2,17.3c0,0.1-0.2,0.2-0.3,0.1c-0.2-0.1-0.4-0.6-0.4-0.8c-0.3,0.3-0.8,0.5-0.9,0c-0.1,0.1-0.2,0.1-0.3,0.2
	c-0.1-0.1-0.1-1-0.4-0.9c-0.1,0,0.1,2,0,2.3c0.5-0.2-0.1,0.4,0.3,0.5c0.3,0,0.9-0.5,0.9-0.8c0,0.1,0.1,0.2,0.1,0.3
	c0.3-0.2,0.4-0.6,0.2,0.2c0.4-0.2,0.1-0.5,0.3-0.8c0.1,0,0.5,0.5,0.6,0.4C42.8,17.7,42.2,17.3,42.2,17.3z M40.3,18
	C40.2,18,40.3,18,40.3,18L40.3,18z"/>
<path class="st1" d="M33.3,38.3c0.2,0,1.2-1.1,1.4-0.7c0,0.1-0.1,0.1-0.1,0.2c0.2,0.2,0.9,0,1.2,0c0.6,0,0.6,0.1,1.1,0.2
	c0.2,0.1,0.5,0,0.7,0.1c0.2,0.1-0.3,0.3-0.2,0.4c0.6-0.3,1.3-0.3,1.8-0.8C38.2,37.5,33,36.4,33.3,38.3z"/>
<path class="st1" d="M39.7,37.9c0.1,0.1,0.4,0.3,0.6,0.5c-0.1,0-1.1,0.2-1.1,0.5c0.1,0.3,0.6-0.1,0.8-0.1c0,0,0.9-0.1,0.8-0.1
	c0.2-0.1,0.3-0.5,0.6-0.6c0.3-0.2,1,0,1-0.5C41.7,37.3,40.2,37.1,39.7,37.9z"/>
<path class="st1" d="M25.7,5.5c-0.2,0-0.3-0.6-0.6-0.3c-0.4,0.4,0.7,0.9,0.6,1.1c0-0.1,0-0.3,0.2-0.3c0.5,0.5,2.3-0.6,0.8-0.6
	C26.2,5.4,26.1,5.6,25.7,5.5z"/>
<path class="st1" d="M29.4,12c0.1-0.3-0.4-0.1-0.4-0.1c-0.3-0.3-0.9-0.9-1.3-0.8c-0.1,0.5,0.2,0.9-0.1,1.4c0.1,0,0.8,0,0.6,0.1
	c0.2-0.1,0.3-0.5,0.4-0.7C28.8,12,29.3,12.4,29.4,12z"/>
<path class="st1" d="M22.6,5C22.6,5,22.6,5,22.6,5C22.6,5,22.6,5,22.6,5z"/>
<path class="st1" d="M21.1,5.6c0.2,0.2,0.6-0.1,0.7,0.3c-0.1,0-0.2,0.1-0.3,0.1c0.4,0.5,2.1-0.4,1.2-0.4c-0.1,0-0.1-0.5-0.1-0.6
	c-0.4,0.2,0,0.6-0.3,0.7C22,5.7,21.9,5,21.7,5C21.5,5.1,21.3,5.5,21.1,5.6z"/>
<path class="st1" d="M23.5,7.2c0,0.4,0.7,1.3,1,0.6c0.3-0.5-0.4-0.5-0.1-1c0-0.1-0.4-0.2-0.5-0.1c-0.3,0.1,0.1,0.4,0,0.4
	C23.9,7.2,23.5,7.3,23.5,7.2z"/>
<path class="st1" d="M25.7,6.6c-1,0-0.9,0.1-0.7,1.1C25.3,7.4,25.5,7.1,25.7,6.6z"/>
<path class="st1" d="M23.7,5.5c0,0.1,0.2,0.6,0.3,0.6C24.7,6.1,24.1,4.8,23.7,5.5z"/>
<path class="st1" d="M20.9,5.2c0.1-0.1,0.7-0.4,0.7-0.4c0.1-0.7-0.7-0.1-1,0.2C20.7,5.1,20.8,5,20.9,5.2z"/>
<path class="st1" d="M7.8,10.9c0-0.1-0.1-0.2-0.2-0.2c-0.2,0-0.1,0.5,0.2,0.4c0.2,0,0.4-0.3,0.6-0.4C8.2,10.9,7.9,10.6,7.8,10.9z"/>
<path class="st1" d="M37,39.5c0.5,0.3,0.8,0,1.2-0.1C37.7,39.1,37.4,39.5,37,39.5z"/>
<path class="st1" d="M24,4.4c0-0.5-0.4-0.6-0.7-0.7C23.3,4.2,23.7,4.3,24,4.4z"/>
<path class="st1" d="M12,17.1c0.2-0.2,0.4-0.7,0-0.9C11.9,16.5,11.9,16.8,12,17.1z"/>
<path class="st1" d="M12.6,16c0.1-0.4-0.1-0.8,0-1.1C12.3,15.2,12.4,15.6,12.6,16z"/>
<path class="st1" d="M43.7,37c-0.4-0.3-1,0.6-0.6,0.5C43.2,37.5,44,37.2,43.7,37z"/>
<path class="st1" d="M29.6,9.2c-0.3,0.1,0,0.3,0.1,0.5C29.6,9.8,30.2,9.1,29.6,9.2z"/>
<path class="st1" d="M24.2,4C24.4,4.6,24.7,4.3,24.2,4L24.2,4z"/>
<path class="st1" d="M24.8,5.7C24.5,6,24.6,6.1,25,6.2C25,6,24.9,5.9,24.8,5.7z"/>
<path class="st1" d="M24.4,5C25,5.5,25,5,24.4,5L24.4,5z"/>
<path class="st1" d="M6.8,7.2C6.7,7.8,7.3,6.5,6.8,7.2L6.8,7.2z"/>
<path class="st1" d="M28.8,13.1c0.1,0.1,0.5-0.6,0.4-0.4C29.1,12.6,28.5,12.8,28.8,13.1z"/>
<path class="st1" d="M22.3,4.3C21.8,4.2,23,4.8,22.3,4.3L22.3,4.3z"/>
<path class="st1" d="M4.8,10.1c0.1-0.4-0.2-0.2-0.3-0.3C4.6,9.9,4.7,10,4.8,10.1z"/>
<path class="st1" d="M31.2,16.2c0,0.1,0,0.2,0,0.4C31.1,16.3,31.5,16.7,31.2,16.2z"/>
<polygon class="st1" points="6.5,-2.4 6.5,-2.4 6.5,-2.4 "/>
<path class="st1" d="M6.5-2.3C6.5-2.3,6.5-2.3,6.5-2.3C6.5-2.3,6.4-2.3,6.5-2.3C6.4-2.3,6.4-2.3,6.5-2.3z"/>
<path class="st1" d="M5.1,10.1C5,9.9,4.9,10.1,5.1,10.1L5.1,10.1z"/>
<path class="st1" d="M6.3-1.9C6.3-1.9,6.3-1.9,6.3-1.9C6.3-1.9,6.3-1.9,6.3-1.9C6.3-1.9,6.3-1.9,6.3-1.9C6.3-1.9,6.3-1.9,6.3-1.9z"
	/>
<path class="st1" d="M20.6,5C20.5,5.1,20.6,5,20.6,5L20.6,5z"/>
<polygon class="st1" points="6.3,-2 6.3,-2 6.4,-2 "/>
<polygon class="st1" points="6.4,-2.1 6.4,-2.2 6.4,-2.1 "/>
<path class="st1" d="M34.4,6.9C34.5,7,34.5,6.9,34.4,6.9L34.4,6.9z"/>
<path class="st1" d="M26.2,4.4C26.2,4.4,26.2,4.2,26.2,4.4L26.2,4.4z"/>
<g>
	<path d="M36.6,24.9c0.3-0.3,0.9-0.7,1.1-0.9c-0.4,0.3-0.5-0.5-0.5-0.7c0-0.4,0.2-0.4,0.3-0.7c0.1-0.1,0.4-0.5,0.4-0.5
		c0.3-0.6,0.2-0.5-0.4-1.1c0,0,0,0-0.1-0.1l-0.7-0.2l-0.1,0.6c0,0.2,0,0.4-0.1,0.6c-0.1,0.2-0.2,0.2-0.4,0.3l-0.9,0.8l-0.6,0.5
		c0,0.1-0.1,0.2-0.1,0.2c-0.2,0.3-0.5,0.3-0.7,0.5l-0.4,0.2c0,0,0,0.1,0,0.1c0.1,0.2,0,0.3-0.2,0.4c-0.2,0.2-1.3,1.4-1.7,0.8
		c0,0,0.2-0.6,0.1-1l-0.3-0.3c-0.1,0-0.1,0.1-0.2,0.2c0-0.1,0-0.2,0-0.4l-0.2-0.2v-0.5c-0.5-0.4-0.7-0.1-0.7,0.4
		c-0.7,0.3,0,1-0.2,1.7c-0.3,1-0.7,0.2-0.7-0.5c-0.1-1.4,0-1.5,1.4-2c0-0.1-0.1-0.1-0.1-0.1h-0.6L30,23c-0.5,0.1-1,0.2-1.1-0.2
		c-0.2,0.1-1.4,0.7-1.4,0.4c0,0,0.3-0.3,0.6-0.7L26.1,22l-4.6-0.1L14.6,21h-0.1c0,0.2-0.1,0.5-0.1,0.5c0-0.1-0.1-0.2-0.1-0.1
		c-0.1,0-0.1-0.3-0.3-0.4h-0.3c-0.1,0.9-0.2,1.4-0.6,2.3c-0.3,0.7-0.4,1.3-0.5,2c-0.1,0.6-0.5,1.3-0.2,2c0.1,0.3,0.4,0.2,0.5,0.5
		c0,0-0.1,0.4-0.1,0.5c0,0.3,0.4,1.6,0.6,1.8c0.2,0.3,0.7,0.3,1,0.6c0.3,0.3,0.4,0.7,0.5,1.1c0.2,0.6,0.4,1.1,0.7,1.6h0.6
		c-0.1-0.4-0.2-0.7-0.2-1.2c0.1,0.1,0.3,0.1,0.4,0.2l-0.5-1.1l4.6,1.6l1.7,1.6h1l2.6,1.8c0-0.3-0.1-0.8,0.2-1.1
		c0.2-0.2,0.6-0.3,0.9-0.5c0.4-0.2,0.4-0.4,1-0.4c0.3,0,0.7-0.1,1-0.1c0.1,0,0.4,0.2,0.6,0.2c0.1,0,0.3-0.2,0.3-0.2
		c0,0,0.5,0.2,0.5,0.2c0.3-0.2-0.4-0.2-0.1-0.6c-0.2,0-0.3,0-0.5-0.1c0.4-0.3,0.9,0,1.2-0.5c0.2,0.1,0.4,0,0.7,0
		c0.1,0,0.7,0.2,0.7,0.2c0.5,0,0.8-0.5,1.4,0.2c0.3,0.4,0.2,0.8,0.4,1.2c0.2,0.3,1,0.6,1,1.1c1.3-0.7-0.7-2.7-0.8-3.5
		c-0.1-0.6,0.5-1.2,0.8-1.7c0.1-0.2,1.2-1.4,1.2-1.4c-0.2-0.4,0.2-0.3,0.2-0.5c0-0.5-0.3-0.1-0.3-0.3c0.4-0.5,0.1-0.2-0.2-0.6
		c-0.1-0.2,0-0.3-0.1-0.5c0,0-0.5,0-0.5-0.2c0.1-0.1,0.3,0.1,0.4,0.1c-0.2-0.3-0.4-0.6,0-0.8c-0.2,0.5,0.2,0.6,0.4,0.9
		c0.3-0.4-0.1-0.7-0.2-1C36.4,26.7,36.3,25.3,36.6,24.9z"/>
</g>
</svg>
